<svg width="24" height="24" viewBox="0 0 24 24" fill="none" xmlns="http://www.w3.org/2000/svg">
<path d="M10.4118 10.75H13.3529V11.375H10.4118V10.75Z" fill="black"/>
<path d="M11 10.125H12.8824V10.75H11V10.125Z" fill="black"/>
<path d="M11 13.25H12.8824V13.875H11V13.25Z" fill="black"/>
<path d="M10.4118 12.625H13.3529V13.25H10.4118V12.625Z" fill="black"/>
<path d="M9.94118 11.375H13.7059V12H9.94118V11.375Z" fill="black"/>
<path d="M9.94118 12H13.7059V12.625H9.94118V12Z" fill="black"/>
<path d="M11 11.375H12.7647V12H11V11.375Z" fill="white"/>
<path d="M11 12H12.7647V12.625H11V12Z" fill="white"/>
<path d="M9.94118 7H14.0588V7.625H9.94118V7Z" fill="black"/>
<path d="M13.7059 11.75H16.4118V12.375H13.7059V11.75Z" fill="black"/>
<path d="M7.58824 11.75H9.94118V12.375H7.58824V11.75Z" fill="black"/>
<path d="M9.94118 16.375H14.0588V17H9.94118V16.375Z" fill="black"/>
<path d="M14.0588 7.625H15.2353V8.25H14.0588V7.625Z" fill="black"/>
<path d="M15.2353 8.25H15.8235V8.875H15.2353V8.25Z" fill="black"/>
<path d="M15.8235 8.875H16.4118V10.75H15.8235V8.875Z" fill="black"/>
<path d="M14.0588 16.375H15.2353V15.75H14.0588V16.375Z" fill="black"/>
<path d="M15.2353 15.75H15.8235V14.5H15.2353V15.75Z" fill="black"/>
<path d="M15.8235 14.5H16.4118V13.25H15.8235V14.5Z" fill="black"/>
<path d="M16.4118 10.75H17V13.25H16.4118V10.75Z" fill="black"/>
<path d="M9.94118 7.625H8.76471V8.25H9.94118V7.625Z" fill="black"/>
<path d="M8.76471 8.25H8.17647V8.875H8.76471V8.25Z" fill="black"/>
<path d="M8.17647 8.875H7.58824V10.75H8.17647V8.875Z" fill="black"/>
<path d="M9.94118 16.375H8.76471V15.75H9.94118V16.375Z" fill="black"/>
<path d="M8.76471 15.75H8.17647V15.125H8.76471V15.75Z" fill="black"/>
<path d="M8.17647 15.125H7.58824V13.25H8.17647V15.125Z" fill="black"/>
<path d="M7.58824 10.75H7V13.25H7.58824V10.75Z" fill="black"/>
<path d="M13.7059 11.375H16.4118V11.75H13.7059V11.375Z" fill="#B02B2B"/>
<path d="M13.3529 10.75H16.4118V11.375H13.3529V10.75Z" fill="#B02B2B"/>
<path d="M12.8824 8.875H15.8235V10.75H12.8824V8.875Z" fill="#B02B2B"/>
<path d="M8.76471 8.25H15.2353V8.875H8.76471V8.25Z" fill="#B02B2B"/>
<path d="M9.94118 7.625H14.0588V8.25H9.94118V7.625Z" fill="#B02B2B"/>
<path d="M8.17647 8.875H12.8824V10.125H8.17647V8.875Z" fill="#B02B2B"/>
<path d="M8.17647 10.125H11V10.75H8.17647V10.125Z" fill="#B02B2B"/>
<path d="M7.58824 10.75H10.4118V11.375H7.58824V10.75Z" fill="#B02B2B"/>
<path d="M7.58824 11.375H9.94118V11.75H7.58824V11.375Z" fill="#B02B2B"/>
<path d="M13.7059 12.7386H16.4118V12.375H13.7059V12.7386Z" fill="#D9D9D9"/>
<path d="M13.3529 13.25H16.4118V12.625H13.3529V13.25Z" fill="#D9D9D9"/>
<path d="M12.8824 15.125H15.8235V13.25H12.8824V15.125Z" fill="#D9D9D9"/>
<path d="M8.76471 15.75H15.2353V15.125H8.76471V15.75Z" fill="#D9D9D9"/>
<path d="M9.94118 16.375H14.0588V15.75H9.94118V16.375Z" fill="#D9D9D9"/>
<path d="M8.17647 15.125H12.8824V13.875H8.17647V15.125Z" fill="#D9D9D9"/>
<path d="M8.17647 13.875H11V13.25H8.17647V13.875Z" fill="#D9D9D9"/>
<path d="M7.58824 13.25H10.4118V12.625H7.58824V13.25Z" fill="#D9D9D9"/>
<path d="M7.58824 12.625H9.94118V12.375H7.58824V12.625Z" fill="#D9D9D9"/>
</svg>
