<svg width="24" height="24" viewBox="0 0 24 24" fill="none" xmlns="http://www.w3.org/2000/svg">
<rect x="10" y="3" width="3" height="1" fill="black"/>
<rect x="13" y="4" width="2" height="1" fill="black"/>
<rect x="13" y="9" width="2" height="1" fill="#15641D"/>
<rect x="15" y="5" width="1" height="1" fill="black"/>
<rect x="7" y="5" width="1" height="1" fill="black"/>
<rect x="7" y="7" width="1" height="1" fill="black"/>
<rect x="15" y="7" width="1" height="1" fill="black"/>
<rect x="6" y="7" width="1" height="1" fill="black"/>
<rect x="16" y="7" width="1" height="1" fill="black"/>
<rect x="17" y="8" width="1" height="1" fill="black"/>
<rect x="5" y="8" width="1" height="1" fill="black"/>
<rect x="18" y="9" width="1" height="1" fill="black"/>
<rect x="4" y="9" width="1" height="1" fill="black"/>
<rect x="18" y="10" width="1" height="1" fill="black"/>
<rect x="4" y="10" width="1" height="1" fill="black"/>
<rect x="17" y="11" width="1" height="1" fill="black"/>
<rect x="5" y="11" width="1" height="1" fill="black"/>
<rect x="18" y="12" width="1" height="1" fill="black"/>
<rect x="4" y="12" width="1" height="1" fill="black"/>
<rect x="19" y="12" width="1" height="1" fill="black"/>
<rect x="3" y="12" width="1" height="1" fill="black"/>
<rect x="19" y="13" width="1" height="1" fill="black"/>
<rect x="3" y="13" width="1" height="1" fill="black"/>
<rect x="20" y="14" width="1" height="1" fill="black"/>
<rect x="2" y="14" width="1" height="1" fill="black"/>
<rect x="20" y="15" width="1" height="1" fill="black"/>
<rect x="2" y="15" width="1" height="1" fill="black"/>
<rect x="19" y="16" width="1" height="1" fill="black"/>
<rect x="3" y="16" width="1" height="1" fill="black"/>
<rect x="18" y="17" width="1" height="1" fill="black"/>
<rect x="4" y="17" width="1" height="1" fill="black"/>
<rect x="17" y="18" width="1" height="1" fill="black"/>
<rect x="5" y="18" width="1" height="1" fill="black"/>
<rect x="15" y="19" width="1" height="1" fill="black"/>
<rect x="6" y="19" width="1" height="1" fill="black"/>
<rect x="14" y="20" width="1" height="1" fill="black"/>
<rect x="8" y="20" width="7" height="1" fill="black"/>
<rect x="4" y="16" width="15" height="1" fill="#1F4D23"/>
<rect x="4" y="16" width="15" height="1" fill="#1F4D23"/>
<rect x="4" y="16" width="15" height="1" fill="#1F4D23"/>
<rect x="14" y="15" width="6" height="1" fill="#1F4D23"/>
<rect x="14" y="15" width="6" height="1" fill="#1F4D23"/>
<rect x="14" y="15" width="6" height="1" fill="#37693C"/>
<rect x="3" y="15" width="6" height="1" fill="#1F4D23"/>
<rect x="3" y="15" width="6" height="1" fill="#1F4D23"/>
<rect x="3" y="15" width="6" height="1" fill="#37693C"/>
<rect x="9" y="15" width="5" height="1" fill="#1F4D23"/>
<rect x="9" y="15" width="5" height="1" fill="#1F4D23"/>
<rect x="9" y="15" width="5" height="1" fill="#59895D"/>
<rect x="9" y="15" width="5" height="1" fill="#59895D"/>
<rect x="9" y="15" width="5" height="1" fill="#59895D"/>
<rect x="8" y="13" width="8" height="1" fill="#1F4D23"/>
<rect x="8" y="13" width="8" height="1" fill="#1F4D23"/>
<rect x="8" y="13" width="8" height="1" fill="#59895D"/>
<rect x="8" y="13" width="8" height="1" fill="#59895D"/>
<rect x="8" y="13" width="8" height="1" fill="#59895D"/>
<rect x="3" y="14" width="14" height="1" fill="#1F4D23"/>
<rect x="3" y="14" width="14" height="1" fill="#1F4D23"/>
<rect x="3" y="14" width="14" height="1" fill="#37693C"/>
<rect x="16" y="14" width="4" height="1" fill="#1F4D23"/>
<rect x="16" y="14" width="4" height="1" fill="#1F4D23"/>
<rect x="16" y="14" width="4" height="1" fill="#37693C"/>
<rect x="15" y="13" width="4" height="1" fill="#1F4D23"/>
<rect x="15" y="13" width="4" height="1" fill="#1F4D23"/>
<rect x="15" y="13" width="4" height="1" fill="#37693C"/>
<rect x="16" y="13" width="3" height="1" fill="#1F4D23"/>
<rect x="16" y="13" width="3" height="1" fill="#1F4D23"/>
<rect x="16" y="13" width="3" height="1" fill="#37693C"/>
<rect x="4" y="13" width="4" height="1" fill="#1F4D23"/>
<rect x="4" y="13" width="4" height="1" fill="#1F4D23"/>
<rect x="4" y="13" width="4" height="1" fill="#37693C"/>
<rect width="1" height="1" transform="matrix(-1 0 0 1 18 12)" fill="#1F4D23"/>
<rect width="1" height="1" transform="matrix(-1 0 0 1 18 12)" fill="#1F4D23"/>
<rect width="1" height="1" transform="matrix(-1 0 0 1 18 12)" fill="#57A35E"/>
<rect width="1" height="1" transform="matrix(-1 0 0 1 6 12)" fill="#1F4D23"/>
<rect width="1" height="1" transform="matrix(-1 0 0 1 6 12)" fill="#1F4D23"/>
<rect width="1" height="1" transform="matrix(-1 0 0 1 6 12)" fill="#57A35E"/>
<rect x="5" y="17" width="13" height="1" fill="#1F4D23"/>
<rect x="5" y="17" width="13" height="1" fill="#1F4D23"/>
<rect x="5" y="17" width="13" height="1" fill="#1F4D23"/>
<rect x="6" y="18" width="11" height="1" fill="#1F4D23"/>
<rect x="6" y="18" width="11" height="1" fill="#1F4D23"/>
<rect x="6" y="18" width="11" height="1" fill="#1F4D23"/>
<rect x="8" y="19" width="7" height="1" fill="#1F4D23"/>
<rect x="8" y="19" width="7" height="1" fill="#1F4D23"/>
<rect x="8" y="19" width="7" height="1" fill="#1F4D23"/>
<rect x="16" y="19" width="1" height="1" fill="black"/>
<rect x="7" y="19" width="1" height="1" fill="black"/>
<rect x="14" y="12" width="3" height="1" fill="#16401A"/>
<rect x="6" y="12" width="3" height="1" fill="#16401A"/>
<rect x="6" y="6" width="1" height="1" fill="black"/>
<rect x="16" y="6" width="1" height="1" fill="black"/>
<rect x="8" y="4" width="2" height="1" fill="black"/>
<rect x="8" y="9" width="2" height="1" fill="#15641D"/>
<rect x="10" y="6" width="3" height="1" fill="#2D7734"/>
<rect x="7" y="6" width="3" height="1" fill="#67A65D"/>
<rect x="7" y="6" width="3" height="1" fill="#67A65D"/>
<rect x="7" y="6" width="3" height="1" fill="#67A65D"/>
<rect x="13" y="6" width="3" height="1" fill="#67A65D"/>
<rect x="13" y="6" width="3" height="1" fill="#67A65D"/>
<rect x="13" y="6" width="3" height="1" fill="#67A65D"/>
<rect x="8" y="7" width="7" height="1" fill="#67A65D"/>
<rect x="8" y="7" width="7" height="1" fill="#67A65D"/>
<rect x="8" y="7" width="7" height="1" fill="#67A65D"/>
<rect x="6" y="8" width="11" height="1" fill="#67A65D"/>
<rect x="6" y="8" width="11" height="1" fill="#67A65D"/>
<rect x="6" y="8" width="11" height="1" fill="#67A65D"/>
<rect x="15" y="8" width="2" height="4" fill="#67A65D"/>
<rect x="15" y="8" width="2" height="4" fill="#67A65D"/>
<rect x="15" y="8" width="2" height="4" fill="#67A65D"/>
<rect x="13" y="10" width="2" height="2" fill="#67A65D"/>
<rect x="13" y="10" width="2" height="2" fill="#67A65D"/>
<rect x="13" y="10" width="2" height="2" fill="#67A65D"/>
<rect x="8" y="10" width="2" height="2" fill="#67A65D"/>
<rect x="8" y="10" width="2" height="2" fill="#67A65D"/>
<rect x="8" y="10" width="2" height="2" fill="#67A65D"/>
<rect x="9" y="11" width="5" height="2" fill="#67A65D"/>
<rect x="9" y="11" width="5" height="2" fill="#67A65D"/>
<rect x="9" y="11" width="5" height="2" fill="#67A65D"/>
<rect x="10" y="9" width="3" height="1" fill="#67A65D"/>
<rect x="10" y="9" width="3" height="1" fill="#67A65D"/>
<rect x="10" y="9" width="3" height="1" fill="#67A65D"/>
<rect x="6" y="8" width="2" height="4" fill="#67A65D"/>
<rect x="6" y="8" width="2" height="4" fill="#67A65D"/>
<rect x="6" y="8" width="2" height="4" fill="#67A65D"/>
<rect x="5" y="9" width="1" height="2" fill="#67A65D"/>
<rect x="5" y="9" width="1" height="2" fill="#67A65D"/>
<rect x="5" y="9" width="1" height="2" fill="#67A65D"/>
<rect x="17" y="9" width="1" height="2" fill="#67A65D"/>
<rect x="17" y="9" width="1" height="2" fill="#67A65D"/>
<rect x="17" y="9" width="1" height="2" fill="#67A65D"/>
<rect x="8" y="5" width="1" height="1" fill="#67A65D"/>
<rect x="8" y="5" width="1" height="1" fill="#67A65D"/>
<rect x="8" y="5" width="1" height="1" fill="#67A65D"/>
<rect x="14" y="5" width="1" height="1" fill="#67A65D"/>
<rect x="14" y="5" width="1" height="1" fill="#67A65D"/>
<rect x="14" y="5" width="1" height="1" fill="#67A65D"/>
<rect x="10" y="4" width="3" height="1" fill="#ABD5A5"/>
<rect x="9" y="5" width="5" height="1" fill="#ABD5A5"/>
<rect x="10" y="10" width="3" height="1" fill="#15641D"/>
<rect x="11" y="11" width="1" height="1" fill="#15641D"/>
</svg>
