<svg width="48" height="24" viewBox="0 0 48 24" fill="none" xmlns="http://www.w3.org/2000/svg">
<rect x="1.5" y="1.5" width="45" height="6" fill="#BABABA"/>
<rect x="1.5" y="1.5" width="45" height="6" fill="#BABABA"/>
<rect x="1.5" y="1.5" width="45" height="6" fill="#BABABA"/>
<rect x="1.5" y="1.5" width="45" height="6" fill="#BABABA"/>
<rect x="1.5" y="1.5" width="45" height="6" stroke="black"/>
<rect x="1.5" y="10.5" width="45" height="11" fill="#BABABA"/>
<rect x="1.5" y="10.5" width="45" height="11" fill="#BABABA"/>
<rect x="1.5" y="10.5" width="45" height="11" fill="#BABABA"/>
<rect x="1.5" y="10.5" width="45" height="11" fill="#BABABA"/>
<rect x="1.5" y="10.5" width="45" height="11" stroke="black"/>
<line x1="2" y1="3.5" x2="46" y2="3.5" stroke="black"/>
<line x1="2" y1="5.5" x2="46" y2="5.5" stroke="black"/>
<line x1="2" y1="15.5" x2="46" y2="15.5" stroke="black"/>
<line x1="2" y1="17.5" x2="46" y2="17.5" stroke="black"/>
<line x1="2" y1="19.5" x2="46" y2="19.5" stroke="black"/>
<line x1="2" y1="13.5" x2="46" y2="13.5" stroke="black"/>
<rect x="7" y="22" width="6" height="2" fill="black"/>
<rect x="35" y="22" width="6" height="2" fill="black"/>
<rect x="35" y="8" width="6" height="2" fill="black"/>
<rect x="7" y="8" width="6" height="2" fill="black"/>
</svg>
