<svg width="166" height="113" viewBox="0 0 166 113" fill="none" xmlns="http://www.w3.org/2000/svg">
<rect x="3.5" y="50.5" width="159" height="58" fill="white" stroke="black"/>
<path d="M4.42539 109.5L8.17539 112.5H158.31L161.685 109.5H4.42539Z" fill="#ACACAC" stroke="black"/>
<rect x="0.5" y="0.5" width="165" height="51" fill="white" stroke="black"/>
<rect x="143.5" y="56.5" width="14" height="12" fill="#F1F1F1" stroke="#CCCCCC"/>
<rect x="75.5" y="56.5" width="14" height="12" fill="#F1F1F1" stroke="#CCCCCC"/>
<rect x="109.5" y="56.5" width="14" height="12" fill="#F1F1F1" stroke="#CCCCCC"/>
<rect x="41.5" y="56.5" width="14" height="12" fill="#F1F1F1" stroke="#CCCCCC"/>
<rect x="126.5" y="56.5" width="14" height="12" fill="#F1F1F1" stroke="#CCCCCC"/>
<rect x="58.5" y="56.5" width="14" height="12" fill="#F1F1F1" stroke="#CCCCCC"/>
<rect x="92.5" y="56.5" width="14" height="12" fill="#F1F1F1" stroke="#CCCCCC"/>
<rect x="24.5" y="56.5" width="14" height="12" fill="#F1F1F1" stroke="#CCCCCC"/>
<rect x="7.5" y="56.5" width="14" height="12" fill="#F1F1F1" stroke="#CCCCCC"/>
<rect x="143" y="99" width="15" height="5" rx="1" fill="#E8B375"/>
<rect x="92" y="99" width="15" height="5" rx="1" fill="#E8B375"/>
<rect x="41" y="99" width="15" height="5" rx="1" fill="#E8B375"/>
<rect x="126" y="99" width="15" height="5" rx="1" fill="#E8B375"/>
<rect x="75" y="99" width="15" height="5" rx="1" fill="#E8B375"/>
<rect x="24" y="99" width="15" height="5" rx="1" fill="#E8B375"/>
<rect x="109" y="99" width="15" height="5" rx="1" fill="#E8B375"/>
<rect x="58" y="99" width="15" height="5" rx="1" fill="#E8B375"/>
<rect x="8" y="99" width="14" height="5" rx="1" fill="#E8B375"/>
<rect x="143" y="99" width="15" height="5" rx="1" fill="#E8B375"/>
<rect x="92" y="99" width="15" height="5" rx="1" fill="#E8B375"/>
<rect x="41" y="99" width="15" height="5" rx="1" fill="#E8B375"/>
<rect x="126" y="99" width="15" height="5" rx="1" fill="#E8B375"/>
<rect x="75" y="99" width="15" height="5" rx="1" fill="#E8B375"/>
<rect x="24" y="99" width="15" height="5" rx="1" fill="#E8B375"/>
<rect x="109" y="99" width="15" height="5" rx="1" fill="#E8B375"/>
<rect x="58" y="99" width="15" height="5" rx="1" fill="#E8B375"/>
<rect x="8" y="99" width="14" height="5" rx="1" fill="#E8B375"/>
<rect x="143" y="71" width="15" height="5" rx="1" fill="#E8B375"/>
<rect x="143" y="85" width="15" height="5" rx="1" fill="#E8B375"/>
<rect x="92" y="71" width="15" height="5" rx="1" fill="#E8B375"/>
<rect x="92" y="85" width="15" height="5" rx="1" fill="#E8B375"/>
<rect x="41" y="71" width="15" height="5" rx="1" fill="#E8B375"/>
<rect x="41" y="85" width="15" height="5" rx="1" fill="#E8B375"/>
<rect x="126" y="71" width="15" height="5" rx="1" fill="#E8B375"/>
<rect x="126" y="85" width="15" height="5" rx="1" fill="#E8B375"/>
<rect x="75" y="71" width="15" height="5" rx="1" fill="#E8B375"/>
<rect x="75" y="85" width="15" height="5" rx="1" fill="#E8B375"/>
<rect x="24" y="71" width="15" height="5" rx="1" fill="#E8B375"/>
<rect x="24" y="85" width="15" height="5" rx="1" fill="#E8B375"/>
<rect x="109" y="71" width="15" height="5" rx="1" fill="#E8B375"/>
<rect x="109" y="85" width="15" height="5" rx="1" fill="#E8B375"/>
<rect x="58" y="71" width="15" height="5" rx="1" fill="#E8B375"/>
<rect x="58" y="85" width="15" height="5" rx="1" fill="#E8B375"/>
<rect x="8" y="71" width="14" height="5" rx="1" fill="#E8B375"/>
<rect x="8" y="85" width="14" height="5" rx="1" fill="#E8B375"/>
<rect x="134" y="78" width="15" height="5" rx="1" fill="#E8B375"/>
<rect x="134" y="92" width="15" height="5" rx="1" fill="#E8B375"/>
<rect x="151" y="78" width="7" height="5" rx="1" fill="#E8B375"/>
<rect x="151" y="92" width="7" height="5" rx="1" fill="#E8B375"/>
<rect x="83" y="78" width="15" height="5" rx="1" fill="#E8B375"/>
<rect x="83" y="92" width="15" height="5" rx="1" fill="#E8B375"/>
<rect x="32" y="78" width="15" height="5" rx="1" fill="#E8B375"/>
<rect x="32" y="92" width="15" height="5" rx="1" fill="#E8B375"/>
<rect x="117" y="78" width="15" height="5" rx="1" fill="#E8B375"/>
<rect x="117" y="92" width="15" height="5" rx="1" fill="#E8B375"/>
<rect x="66" y="78" width="15" height="5" rx="1" fill="#E8B375"/>
<rect x="66" y="92" width="15" height="5" rx="1" fill="#E8B375"/>
<rect x="15" y="78" width="15" height="5" rx="1" fill="#E8B375"/>
<rect x="15" y="92" width="15" height="5" rx="1" fill="#E8B375"/>
<rect x="100" y="78" width="15" height="5" rx="1" fill="#E8B375"/>
<rect x="100" y="92" width="15" height="5" rx="1" fill="#E8B375"/>
<rect x="49" y="78" width="15" height="5" rx="1" fill="#E8B375"/>
<rect x="49" y="92" width="15" height="5" rx="1" fill="#E8B375"/>
<rect x="8" y="78" width="5" height="5" rx="1" fill="#E8B375"/>
<rect x="8" y="92" width="5" height="5" rx="1" fill="#E8B375"/>
<line x1="3" y1="3.5" x2="163" y2="3.5" stroke="#A3A3A3"/>
<line x1="3" y1="48.5" x2="163" y2="48.5" stroke="#A3A3A3"/>
<line x1="3.64645" y1="47.6464" x2="47.6464" y2="3.64645" stroke="#A3A3A3"/>
<line x1="50.6464" y1="48.6464" x2="95.6464" y2="3.64645" stroke="#A3A3A3"/>
<line x1="98.6464" y1="48.6464" x2="143.646" y2="3.64645" stroke="#A3A3A3"/>
<line x1="146.646" y1="48.6464" x2="161.646" y2="33.6464" stroke="#A3A3A3"/>
<line x1="14.6464" y1="48.6464" x2="59.6464" y2="3.64645" stroke="#A3A3A3"/>
<line x1="3.64645" y1="11.6464" x2="11.6464" y2="3.64645" stroke="#A3A3A3"/>
<line x1="62.6464" y1="48.6464" x2="107.646" y2="3.64645" stroke="#A3A3A3"/>
<line x1="110.646" y1="48.6464" x2="155.646" y2="3.64645" stroke="#A3A3A3"/>
<line x1="158.646" y1="48.6464" x2="162.646" y2="44.6464" stroke="#A3A3A3"/>
<line x1="26.6464" y1="48.6464" x2="71.6464" y2="3.64645" stroke="#A3A3A3"/>
<line x1="3.64645" y1="23.6464" x2="23.6464" y2="3.64645" stroke="#A3A3A3"/>
<line x1="74.6464" y1="48.6464" x2="119.646" y2="3.64645" stroke="#A3A3A3"/>
<line x1="122.646" y1="48.6464" x2="162.646" y2="8.64645" stroke="#A3A3A3"/>
<line x1="38.6464" y1="48.6464" x2="83.6464" y2="3.64645" stroke="#A3A3A3"/>
<line x1="3.64645" y1="35.6464" x2="35.6464" y2="3.64645" stroke="#A3A3A3"/>
<line x1="86.6464" y1="48.6464" x2="131.646" y2="3.64645" stroke="#A3A3A3"/>
<line x1="134.653" y1="48.6401" x2="162.653" y2="21.6401" stroke="#A3A3A3"/>
<line y1="-0.5" x2="63.6396" y2="-0.5" transform="matrix(0.707107 0.707107 0.707107 -0.707107 4 3)" stroke="#A3A3A3"/>
<line y1="-0.5" x2="63.6396" y2="-0.5" transform="matrix(0.707107 0.707107 0.707107 -0.707107 52 3)" stroke="#A3A3A3"/>
<line y1="-0.5" x2="63.6396" y2="-0.5" transform="matrix(0.707107 0.707107 0.707107 -0.707107 100 3)" stroke="#A3A3A3"/>
<line y1="-0.5" x2="21.2132" y2="-0.5" transform="matrix(0.707107 0.707107 0.707107 -0.707107 148 3)" stroke="#A3A3A3"/>
<line y1="-0.5" x2="63.6396" y2="-0.5" transform="matrix(0.707107 0.707107 0.707107 -0.707107 16 3)" stroke="#A3A3A3"/>
<line x1="4.35355" y1="38.6464" x2="13.3536" y2="47.6464" stroke="#A3A3A3"/>
<line y1="-0.5" x2="63.6396" y2="-0.5" transform="matrix(0.707107 0.707107 0.707107 -0.707107 64 3)" stroke="#A3A3A3"/>
<line y1="-0.5" x2="63.6396" y2="-0.5" transform="matrix(0.707107 0.707107 0.707107 -0.707107 112 3)" stroke="#A3A3A3"/>
<line x1="159.354" y1="3.64645" x2="162.354" y2="6.64645" stroke="#A3A3A3"/>
<line y1="-0.5" x2="63.6396" y2="-0.5" transform="matrix(0.707107 0.707107 0.707107 -0.707107 28 3)" stroke="#A3A3A3"/>
<line x1="3.35355" y1="25.6464" x2="25.3536" y2="47.6464" stroke="#A3A3A3"/>
<line y1="-0.5" x2="63.6396" y2="-0.5" transform="matrix(0.707107 0.707107 0.707107 -0.707107 76 3)" stroke="#A3A3A3"/>
<line x1="125.354" y1="3.64645" x2="162.354" y2="40.6464" stroke="#A3A3A3"/>
<line y1="-0.5" x2="63.6396" y2="-0.5" transform="matrix(0.707107 0.707107 0.707107 -0.707107 40 3)" stroke="#A3A3A3"/>
<line y1="-0.5" x2="46.669" y2="-0.5" transform="matrix(0.707107 0.707107 0.707107 -0.707107 4 15)" stroke="#A3A3A3"/>
<line y1="-0.5" x2="63.6396" y2="-0.5" transform="matrix(0.707107 0.707107 0.707107 -0.707107 88 3)" stroke="#A3A3A3"/>
<line x1="137.038" y1="3.64645" x2="162.354" y2="28.9622" stroke="#A3A3A3"/>
<path d="M3 3H163V49H3V3Z" fill="#A3A3A3" fill-opacity="0.72"/>
<rect x="75.5" y="88.5" width="17" height="20" fill="#5B443A" stroke="black"/>
<circle cx="88.5" cy="98.5" r="1.5" fill="#D9D9D9"/>
</svg>
