<svg width="24" height="24" viewBox="0 0 24 24" fill="none" xmlns="http://www.w3.org/2000/svg">
<rect width="24" height="24" fill="#E5E9E3"/>
<rect x="15" y="7" width="1" height="1" fill="#A3A8A3"/>
<rect x="15" y="14" width="1" height="1" fill="#A3A8A3"/>
<rect x="5" y="7" width="1" height="1" fill="#A3A8A3"/>
<rect x="5" y="14" width="1" height="1" fill="#A3A8A3"/>
<rect x="13" y="7" width="1" height="1" fill="#A3A8A3"/>
<rect x="13" y="14" width="1" height="1" fill="#A3A8A3"/>
<rect x="10" y="8" width="1" height="1" fill="#A3A8A3"/>
<rect x="10" y="15" width="1" height="1" fill="#A3A8A3"/>
<rect x="8" y="8" width="1" height="1" fill="#A3A8A3"/>
<rect x="8" y="15" width="1" height="1" fill="#A3A8A3"/>
<rect x="18" y="8" width="1" height="1" fill="#A3A8A3"/>
<rect x="18" y="15" width="1" height="1" fill="#A3A8A3"/>
<rect x="20" y="13" width="1" height="1" fill="#A3A8A3"/>
<rect x="3" y="15" width="1" height="1" fill="#A3A8A3"/>
<rect x="2" y="7" width="1" height="1" fill="#A3A8A3"/>
</svg>
