<svg width="24" height="24" viewBox="0 0 24 24" fill="none" xmlns="http://www.w3.org/2000/svg">
<path d="M8.1965 10.1286L9.95999 6.52892C8.3988 8.39379 7.66643 9.85934 7.31936 10.7669C7.31843 10.6126 7.31606 10.4239 7.31145 10.1945C7.29238 9.24709 7.52222 7.15178 7.52222 7.15178C6.47485 8.34862 6.52743 9.7516 6.74617 10.978C6.32007 10.1584 5.64626 9.47184 4.46889 8.84239C4.46889 8.84239 5.85195 10.4615 6.24743 11.1899C6.64291 11.9183 6.77476 11.9929 6.77476 11.9929L6.83754 11.9141L6.87096 11.9053L6.85999 11.9496C6.85999 11.9496 7.03131 12.0216 8.03417 11.8694C9.03703 11.7173 11.6447 11.8623 11.6447 11.8623C10.5736 11.3823 9.66852 11.1718 8.8314 11.1607C9.14239 10.9981 9.44463 10.8096 9.70219 10.5948C10.822 9.66078 11.8516 7.54761 11.8516 7.54761C10.6777 8.16323 9.24405 9.19432 8.1965 10.1286Z" fill="#1F4D23"/>
<path d="M8.1965 10.1286L9.95999 6.52892C8.3988 8.39379 7.66643 9.85934 7.31936 10.7669C7.31843 10.6126 7.31606 10.4239 7.31145 10.1945C7.29238 9.24709 7.52222 7.15178 7.52222 7.15178C6.47485 8.34862 6.52743 9.7516 6.74617 10.978C6.32007 10.1584 5.64626 9.47184 4.46889 8.84239C4.46889 8.84239 5.85195 10.4615 6.24743 11.1899C6.64291 11.9183 6.77476 11.9929 6.77476 11.9929L6.83754 11.9141L6.87096 11.9053L6.85999 11.9496C6.85999 11.9496 7.03131 12.0216 8.03417 11.8694C9.03703 11.7173 11.6447 11.8623 11.6447 11.8623C10.5736 11.3823 9.66852 11.1718 8.8314 11.1607C9.14239 10.9981 9.44463 10.8096 9.70219 10.5948C10.822 9.66078 11.8516 7.54761 11.8516 7.54761C10.6777 8.16323 9.24405 9.19432 8.1965 10.1286Z" fill="#1F4D23"/>
<path d="M8.1965 13.3304L9.95999 9.73069C8.3988 11.5956 7.66643 13.0611 7.31936 13.9687C7.31843 13.8144 7.31606 13.6257 7.31145 13.3963C7.29238 12.4489 7.52222 10.3535 7.52222 10.3535C6.47485 11.5504 6.52743 12.9534 6.74617 14.1797C6.32007 13.3601 5.64626 12.6736 4.46889 12.0442C4.46889 12.0442 5.85195 13.6632 6.24743 14.3916C6.64291 15.1201 6.77476 15.1947 6.77476 15.1947L6.83754 15.1159L6.87096 15.1071L6.85999 15.1513C6.85999 15.1513 7.03131 15.2233 8.03417 15.0712C9.03703 14.919 11.6447 15.0641 11.6447 15.0641C10.5736 14.5841 9.66852 14.3735 8.8314 14.3625C9.14239 14.1999 9.44463 14.0113 9.70219 13.7965C10.822 12.8626 11.8516 10.7494 11.8516 10.7494C10.6777 11.365 9.24405 12.3961 8.1965 13.3304Z" fill="#1F4D23"/>
<path d="M8.1965 13.3304L9.95999 9.73069C8.3988 11.5956 7.66643 13.0611 7.31936 13.9687C7.31843 13.8144 7.31606 13.6257 7.31145 13.3963C7.29238 12.4489 7.52222 10.3535 7.52222 10.3535C6.47485 11.5504 6.52743 12.9534 6.74617 14.1797C6.32007 13.3601 5.64626 12.6736 4.46889 12.0442C4.46889 12.0442 5.85195 13.6632 6.24743 14.3916C6.64291 15.1201 6.77476 15.1947 6.77476 15.1947L6.83754 15.1159L6.87096 15.1071L6.85999 15.1513C6.85999 15.1513 7.03131 15.2233 8.03417 15.0712C9.03703 14.919 11.6447 15.0641 11.6447 15.0641C10.5736 14.5841 9.66852 14.3735 8.8314 14.3625C9.14239 14.1999 9.44463 14.0113 9.70219 13.7965C10.822 12.8626 11.8516 10.7494 11.8516 10.7494C10.6777 11.365 9.24405 12.3961 8.1965 13.3304Z" fill="#1F4D23"/>
<path d="M16.9626 6.92655L18.7261 3.32684C17.1649 5.19171 16.4326 6.65726 16.0855 7.56481C16.0846 7.41054 16.0822 7.22184 16.0776 6.99244C16.0585 6.04501 16.2884 3.9497 16.2884 3.9497C15.241 5.14654 15.2936 6.54952 15.5123 7.77589C15.0862 6.95628 14.4124 6.26976 13.235 5.64031C13.235 5.64031 14.6181 7.25938 15.0136 7.9878C15.4091 8.71621 15.5409 8.79082 15.5409 8.79082L15.6037 8.71201L15.6371 8.70327L15.6261 8.74748C15.6261 8.74748 15.7975 8.81947 16.8003 8.66733C17.8032 8.5152 20.4108 8.66023 20.4108 8.66023C19.3398 8.18026 18.4347 7.9697 17.5975 7.95863C17.9085 7.79604 18.2108 7.6075 18.4683 7.39268C19.5882 6.4587 20.6177 4.34553 20.6177 4.34553C19.4438 4.96115 18.0102 5.99224 16.9626 6.92655Z" fill="#1F4D23"/>
<path d="M16.9626 6.92655L18.7261 3.32684C17.1649 5.19171 16.4326 6.65726 16.0855 7.56481C16.0846 7.41054 16.0822 7.22184 16.0776 6.99244C16.0585 6.04501 16.2884 3.9497 16.2884 3.9497C15.241 5.14654 15.2936 6.54952 15.5123 7.77589C15.0862 6.95628 14.4124 6.26976 13.235 5.64031C13.235 5.64031 14.6181 7.25938 15.0136 7.9878C15.4091 8.71621 15.5409 8.79082 15.5409 8.79082L15.6037 8.71201L15.6371 8.70327L15.6261 8.74748C15.6261 8.74748 15.7975 8.81947 16.8003 8.66733C17.8032 8.5152 20.4108 8.66023 20.4108 8.66023C19.3398 8.18026 18.4347 7.9697 17.5975 7.95863C17.9085 7.79604 18.2108 7.6075 18.4683 7.39268C19.5882 6.4587 20.6177 4.34553 20.6177 4.34553C19.4438 4.96115 18.0102 5.99224 16.9626 6.92655Z" fill="#1F4D23"/>
<path d="M16.9626 20.5345L18.7261 16.9348C17.1649 18.7997 16.4326 20.2652 16.0855 21.1728C16.0846 21.0185 16.0822 20.8298 16.0776 20.6004C16.0585 19.653 16.2884 17.5577 16.2884 17.5577C15.241 18.7545 15.2936 20.1575 15.5123 21.3839C15.0862 20.5643 14.4124 19.8777 13.235 19.2483C13.235 19.2483 14.6181 20.8674 15.0136 21.5958C15.4091 22.3242 15.5409 22.3988 15.5409 22.3988L15.6037 22.32L15.6371 22.3113L15.6261 22.3555C15.6261 22.3555 15.7975 22.4275 16.8003 22.2753C17.8032 22.1232 20.4108 22.2682 20.4108 22.2682C19.3398 21.7882 18.4347 21.5777 17.5975 21.5666C17.9085 21.404 18.2108 21.2155 18.4683 21.0007C19.5882 20.0667 20.6177 17.9535 20.6177 17.9535C19.4438 18.5691 18.0102 19.6002 16.9626 20.5345Z" fill="#1F4D23"/>
<path d="M16.9626 20.5345L18.7261 16.9348C17.1649 18.7997 16.4326 20.2652 16.0855 21.1728C16.0846 21.0185 16.0822 20.8298 16.0776 20.6004C16.0585 19.653 16.2884 17.5577 16.2884 17.5577C15.241 18.7545 15.2936 20.1575 15.5123 21.3839C15.0862 20.5643 14.4124 19.8777 13.235 19.2483C13.235 19.2483 14.6181 20.8674 15.0136 21.5958C15.4091 22.3242 15.5409 22.3988 15.5409 22.3988L15.6037 22.32L15.6371 22.3113L15.6261 22.3555C15.6261 22.3555 15.7975 22.4275 16.8003 22.2753C17.8032 22.1232 20.4108 22.2682 20.4108 22.2682C19.3398 21.7882 18.4347 21.5777 17.5975 21.5666C17.9085 21.404 18.2108 21.2155 18.4683 21.0007C19.5882 20.0667 20.6177 17.9535 20.6177 17.9535C19.4438 18.5691 18.0102 19.6002 16.9626 20.5345Z" fill="#1F4D23"/>
<path d="M13.7751 14.131L15.5386 10.5313C13.9774 12.3962 13.2451 13.8617 12.898 14.7693C12.897 14.615 12.8947 14.4263 12.8901 14.1969C12.871 13.2495 13.1008 11.1541 13.1008 11.1541C12.0535 12.351 12.1061 13.754 12.3248 14.9803C11.8987 14.1607 11.2249 13.4742 10.0475 12.8448C10.0475 12.8448 11.4306 14.4638 11.8261 15.1922C12.2215 15.9207 12.3534 15.9953 12.3534 15.9953L12.4162 15.9165L12.4496 15.9077L12.4386 15.9519C12.4386 15.9519 12.6099 16.0239 13.6128 15.8718C14.6157 15.7196 17.2233 15.8647 17.2233 15.8647C16.1523 15.3847 15.2471 15.1741 14.41 15.1631C14.721 15.0005 15.0233 14.8119 15.2808 14.5971C16.4007 13.6632 17.4302 11.55 17.4302 11.55C16.2563 12.1656 14.8227 13.1967 13.7751 14.131Z" fill="#1F4D23"/>
<path d="M13.7751 14.131L15.5386 10.5313C13.9774 12.3962 13.2451 13.8617 12.898 14.7693C12.897 14.615 12.8947 14.4263 12.8901 14.1969C12.871 13.2495 13.1008 11.1541 13.1008 11.1541C12.0535 12.351 12.1061 13.754 12.3248 14.9803C11.8987 14.1607 11.2249 13.4742 10.0475 12.8448C10.0475 12.8448 11.4306 14.4638 11.8261 15.1922C12.2215 15.9207 12.3534 15.9953 12.3534 15.9953L12.4162 15.9165L12.4496 15.9077L12.4386 15.9519C12.4386 15.9519 12.6099 16.0239 13.6128 15.8718C14.6157 15.7196 17.2233 15.8647 17.2233 15.8647C16.1523 15.3847 15.2471 15.1741 14.41 15.1631C14.721 15.0005 15.0233 14.8119 15.2808 14.5971C16.4007 13.6632 17.4302 11.55 17.4302 11.55C16.2563 12.1656 14.8227 13.1967 13.7751 14.131Z" fill="#1F4D23"/>
<path d="M11.3843 7.72715L13.1478 4.12744C11.5866 5.99231 10.8543 7.45786 10.5072 8.36541C10.5063 8.21114 10.5039 8.02244 10.4993 7.79304C10.4802 6.8456 10.7101 4.7503 10.7101 4.7503C9.66268 5.94714 9.71526 7.35012 9.934 8.57649C9.5079 7.75688 8.83409 7.07036 7.65672 6.44091C7.65672 6.44091 9.03978 8.05998 9.43526 8.78839C9.83074 9.51681 9.96259 9.59142 9.96259 9.59142L10.0254 9.51261L10.0588 9.50387L10.0478 9.54808C10.0478 9.54808 10.2191 9.62007 11.222 9.46793C12.2249 9.31579 14.8325 9.46083 14.8325 9.46083C13.7615 8.98086 12.8563 8.7703 12.0192 8.75923C12.3302 8.59664 12.6325 8.40809 12.89 8.19328C14.0099 7.2593 15.0394 5.14613 15.0394 5.14613C13.8655 5.76175 12.4319 6.79283 11.3843 7.72715Z" fill="#1F4D23"/>
<path d="M11.3843 7.72715L13.1478 4.12744C11.5866 5.99231 10.8543 7.45786 10.5072 8.36541C10.5063 8.21114 10.5039 8.02244 10.4993 7.79304C10.4802 6.8456 10.7101 4.7503 10.7101 4.7503C9.66268 5.94714 9.71526 7.35012 9.934 8.57649C9.5079 7.75688 8.83409 7.07036 7.65672 6.44091C7.65672 6.44091 9.03978 8.05998 9.43526 8.78839C9.83074 9.51681 9.96259 9.59142 9.96259 9.59142L10.0254 9.51261L10.0588 9.50387L10.0478 9.54808C10.0478 9.54808 10.2191 9.62007 11.222 9.46793C12.2249 9.31579 14.8325 9.46083 14.8325 9.46083C13.7615 8.98086 12.8563 8.7703 12.0192 8.75923C12.3302 8.59664 12.6325 8.40809 12.89 8.19328C14.0099 7.2593 15.0394 5.14613 15.0394 5.14613C13.8655 5.76175 12.4319 6.79283 11.3843 7.72715Z" fill="#1F4D23"/>
<path d="M13.7751 10.9289L15.5386 7.32921C13.9774 9.19408 13.2451 10.6596 12.898 11.5672C12.897 11.4129 12.8947 11.2242 12.8901 10.9948C12.871 10.0474 13.1008 7.95206 13.1008 7.95206C12.0535 9.1489 12.1061 10.5519 12.3248 11.7783C11.8987 10.9587 11.2249 10.2721 10.0475 9.64268C10.0475 9.64268 11.4306 11.2617 11.8261 11.9902C12.2215 12.7186 12.3534 12.7932 12.3534 12.7932L12.4162 12.7144L12.4496 12.7056L12.4386 12.7499C12.4386 12.7499 12.6099 12.8218 13.6128 12.6697C14.6157 12.5176 17.2233 12.6626 17.2233 12.6626C16.1523 12.1826 15.2471 11.9721 14.41 11.961C14.721 11.7984 15.0233 11.6099 15.2808 11.395C16.4007 10.4611 17.4302 8.34789 17.4302 8.34789C16.2563 8.96352 14.8227 9.9946 13.7751 10.9289Z" fill="#1F4D23"/>
<path d="M13.7751 10.9289L15.5386 7.32921C13.9774 9.19408 13.2451 10.6596 12.898 11.5672C12.897 11.4129 12.8947 11.2242 12.8901 10.9948C12.871 10.0474 13.1008 7.95206 13.1008 7.95206C12.0535 9.1489 12.1061 10.5519 12.3248 11.7783C11.8987 10.9587 11.2249 10.2721 10.0475 9.64268C10.0475 9.64268 11.4306 11.2617 11.8261 11.9902C12.2215 12.7186 12.3534 12.7932 12.3534 12.7932L12.4162 12.7144L12.4496 12.7056L12.4386 12.7499C12.4386 12.7499 12.6099 12.8218 13.6128 12.6697C14.6157 12.5176 17.2233 12.6626 17.2233 12.6626C16.1523 12.1826 15.2471 11.9721 14.41 11.961C14.721 11.7984 15.0233 11.6099 15.2808 11.395C16.4007 10.4611 17.4302 8.34789 17.4302 8.34789C16.2563 8.96352 14.8227 9.9946 13.7751 10.9289Z" fill="#1F4D23"/>
<path d="M19.6771 9.00297L21.4405 5.40326C19.8794 7.26813 19.147 8.73367 18.7999 9.64123C18.799 9.48696 18.7966 9.29825 18.792 9.06886C18.7729 8.12142 19.0028 6.02611 19.0028 6.02611C17.9554 7.22295 18.008 8.62593 18.2267 9.8523C17.8006 9.0327 17.1268 8.34618 15.9494 7.71673C15.9494 7.71673 17.3325 9.3358 17.728 10.0642C18.1235 10.7926 18.2553 10.8672 18.2553 10.8672L18.3181 10.7884L18.3515 10.7797L18.3405 10.8239C18.3405 10.8239 18.5119 10.8959 19.5147 10.7437C20.5176 10.5916 23.1252 10.7366 23.1252 10.7366C22.0542 10.2567 21.1491 10.0461 20.312 10.035C20.6229 9.87245 20.9252 9.68391 21.1827 9.4691C22.3026 8.53512 23.3322 6.42194 23.3322 6.42194C22.1583 7.03757 20.7246 8.06865 19.6771 9.00297Z" fill="#1F4D23"/>
<path d="M19.6771 9.00297L21.4405 5.40326C19.8794 7.26813 19.147 8.73367 18.7999 9.64123C18.799 9.48696 18.7966 9.29825 18.792 9.06886C18.7729 8.12142 19.0028 6.02611 19.0028 6.02611C17.9554 7.22295 18.008 8.62593 18.2267 9.8523C17.8006 9.0327 17.1268 8.34618 15.9494 7.71673C15.9494 7.71673 17.3325 9.3358 17.728 10.0642C18.1235 10.7926 18.2553 10.8672 18.2553 10.8672L18.3181 10.7884L18.3515 10.7797L18.3405 10.8239C18.3405 10.8239 18.5119 10.8959 19.5147 10.7437C20.5176 10.5916 23.1252 10.7366 23.1252 10.7366C22.0542 10.2567 21.1491 10.0461 20.312 10.035C20.6229 9.87245 20.9252 9.68391 21.1827 9.4691C22.3026 8.53512 23.3322 6.42194 23.3322 6.42194C22.1583 7.03757 20.7246 8.06865 19.6771 9.00297Z" fill="#1F4D23"/>
<path d="M11.3843 14.9313L13.1478 11.3316C11.5866 13.1964 10.8543 14.662 10.5072 15.5695C10.5063 15.4153 10.5039 15.2266 10.4993 14.9972C10.4802 14.0497 10.7101 11.9544 10.7101 11.9544C9.66268 13.1513 9.71526 14.5543 9.934 15.7806C9.5079 14.961 8.83409 14.2745 7.65672 13.645C7.65672 13.645 9.03978 15.2641 9.43526 15.9925C9.83074 16.7209 9.96259 16.7956 9.96259 16.7956L10.0254 16.7167L10.0588 16.708L10.0478 16.7522C10.0478 16.7522 10.2191 16.8242 11.222 16.6721C12.2249 16.5199 14.8325 16.665 14.8325 16.665C13.7615 16.185 12.8563 15.9744 12.0192 15.9634C12.3302 15.8008 12.6325 15.6122 12.89 15.3974C14.0099 14.4634 15.0394 12.3503 15.0394 12.3503C13.8655 12.9659 12.4319 13.997 11.3843 14.9313Z" fill="#1F4D23"/>
<path d="M11.3843 14.9313L13.1478 11.3316C11.5866 13.1964 10.8543 14.662 10.5072 15.5695C10.5063 15.4153 10.5039 15.2266 10.4993 14.9972C10.4802 14.0497 10.7101 11.9544 10.7101 11.9544C9.66268 13.1513 9.71526 14.5543 9.934 15.7806C9.5079 14.961 8.83409 14.2745 7.65672 13.645C7.65672 13.645 9.03978 15.2641 9.43526 15.9925C9.83074 16.7209 9.96259 16.7956 9.96259 16.7956L10.0254 16.7167L10.0588 16.708L10.0478 16.7522C10.0478 16.7522 10.2191 16.8242 11.222 16.6721C12.2249 16.5199 14.8325 16.665 14.8325 16.665C13.7615 16.185 12.8563 15.9744 12.0192 15.9634C12.3302 15.8008 12.6325 15.6122 12.89 15.3974C14.0099 14.4634 15.0394 12.3503 15.0394 12.3503C13.8655 12.9659 12.4319 13.997 11.3843 14.9313Z" fill="#1F4D23"/>
<path d="M17.1365 12.3634L18.9 8.76364C17.3388 10.6285 16.6064 12.0941 16.2593 13.0016C16.2584 12.8473 16.256 12.6586 16.2514 12.4292C16.2323 11.4818 16.4622 9.3865 16.4622 9.3865C15.4148 10.5833 15.4674 11.9863 15.6861 13.2127C15.26 12.3931 14.5862 11.7066 13.4089 11.0771C13.4089 11.0771 14.7919 12.6962 15.1874 13.4246C15.5829 14.153 15.7147 14.2276 15.7147 14.2276L15.7775 14.1488L15.8109 14.1401L15.8 14.1843C15.8 14.1843 15.9713 14.2563 16.9741 14.1041C17.977 13.952 20.5846 14.097 20.5846 14.097C19.5136 13.6171 18.6085 13.4065 17.7714 13.3954C18.0824 13.2328 18.3846 13.0443 18.6422 12.8295C19.762 11.8955 20.7916 9.78233 20.7916 9.78233C19.6177 10.3979 18.184 11.429 17.1365 12.3634Z" fill="#1F4D23"/>
<path d="M17.1365 12.3634L18.9 8.76364C17.3388 10.6285 16.6064 12.0941 16.2593 13.0016C16.2584 12.8473 16.256 12.6586 16.2514 12.4292C16.2323 11.4818 16.4622 9.3865 16.4622 9.3865C15.4148 10.5833 15.4674 11.9863 15.6861 13.2127C15.26 12.3931 14.5862 11.7066 13.4089 11.0771C13.4089 11.0771 14.7919 12.6962 15.1874 13.4246C15.5829 14.153 15.7147 14.2276 15.7147 14.2276L15.7775 14.1488L15.8109 14.1401L15.8 14.1843C15.8 14.1843 15.9713 14.2563 16.9741 14.1041C17.977 13.952 20.5846 14.097 20.5846 14.097C19.5136 13.6171 18.6085 13.4065 17.7714 13.3954C18.0824 13.2328 18.3846 13.0443 18.6422 12.8295C19.762 11.8955 20.7916 9.78233 20.7916 9.78233C19.6177 10.3979 18.184 11.429 17.1365 12.3634Z" fill="#1F4D23"/>
<path d="M5.64499 9.37756L7.40848 5.77785C5.84729 7.64272 5.11492 9.10827 4.76784 10.0158C4.76691 9.86155 4.76455 9.67285 4.75994 9.44345C4.74087 8.49602 4.97071 6.40071 4.97071 6.40071C3.92334 7.59755 3.97591 9.00053 4.19466 10.2269C3.76856 9.4073 3.09474 8.72077 1.91738 8.09132C1.91738 8.09132 3.30044 9.71039 3.69592 10.4388C4.0914 11.1672 4.22325 11.2418 4.22325 11.2418L4.28603 11.163L4.31945 11.1543L4.30847 11.1985C4.30847 11.1985 4.4798 11.2705 5.48266 11.1183C6.48552 10.9662 9.09316 11.1112 9.09316 11.1112C8.02213 10.6313 7.11701 10.4207 6.27989 10.4096C6.59088 10.247 6.89312 10.0585 7.15068 9.84369C8.27053 8.90971 9.30009 6.79654 9.30009 6.79654C8.12619 7.41216 6.69253 8.44325 5.64499 9.37756Z" fill="#1F4D23"/>
<path d="M5.64499 9.37756L7.40848 5.77785C5.84729 7.64272 5.11492 9.10827 4.76784 10.0158C4.76691 9.86155 4.76455 9.67285 4.75994 9.44345C4.74087 8.49602 4.97071 6.40071 4.97071 6.40071C3.92334 7.59755 3.97591 9.00053 4.19466 10.2269C3.76856 9.4073 3.09474 8.72077 1.91738 8.09132C1.91738 8.09132 3.30044 9.71039 3.69592 10.4388C4.0914 11.1672 4.22325 11.2418 4.22325 11.2418L4.28603 11.163L4.31945 11.1543L4.30847 11.1985C4.30847 11.1985 4.4798 11.2705 5.48266 11.1183C6.48552 10.9662 9.09316 11.1112 9.09316 11.1112C8.02213 10.6313 7.11701 10.4207 6.27989 10.4096C6.59088 10.247 6.89312 10.0585 7.15068 9.84369C8.27053 8.90971 9.30009 6.79654 9.30009 6.79654C8.12619 7.41216 6.69253 8.44325 5.64499 9.37756Z" fill="#1F4D23"/>
<path d="M12.6754 20.9333L14.4389 17.3336C12.8777 19.1984 12.1453 20.664 11.7982 21.5715C11.7973 21.4173 11.7949 21.2286 11.7903 20.9992C11.7713 20.0517 12.0011 17.9564 12.0011 17.9564C10.9537 19.1533 11.0063 20.5562 11.225 21.7826C10.7989 20.963 10.1251 20.2765 8.94777 19.647C8.94777 19.647 10.3308 21.2661 10.7263 21.9945C11.1218 22.7229 11.2536 22.7975 11.2536 22.7975L11.3164 22.7187L11.3498 22.71L11.3389 22.7542C11.3389 22.7542 11.5102 22.8262 12.513 22.674C13.5159 22.5219 16.1236 22.6669 16.1236 22.6669C15.0525 22.187 14.1474 21.9764 13.3103 21.9653C13.6213 21.8028 13.9235 21.6142 14.1811 21.3994C15.3009 20.4654 16.3305 18.3522 16.3305 18.3522C15.1566 18.9679 13.7229 19.9989 12.6754 20.9333Z" fill="#1F4D23"/>
<path d="M12.6754 20.9333L14.4389 17.3336C12.8777 19.1984 12.1453 20.664 11.7982 21.5715C11.7973 21.4173 11.7949 21.2286 11.7903 20.9992C11.7713 20.0517 12.0011 17.9564 12.0011 17.9564C10.9537 19.1533 11.0063 20.5562 11.225 21.7826C10.7989 20.963 10.1251 20.2765 8.94777 19.647C8.94777 19.647 10.3308 21.2661 10.7263 21.9945C11.1218 22.7229 11.2536 22.7975 11.2536 22.7975L11.3164 22.7187L11.3498 22.71L11.3389 22.7542C11.3389 22.7542 11.5102 22.8262 12.513 22.674C13.5159 22.5219 16.1236 22.6669 16.1236 22.6669C15.0525 22.187 14.1474 21.9764 13.3103 21.9653C13.6213 21.8028 13.9235 21.6142 14.1811 21.3994C15.3009 20.4654 16.3305 18.3522 16.3305 18.3522C15.1566 18.9679 13.7229 19.9989 12.6754 20.9333Z" fill="#1F4D23"/>
<path d="M8.20149 19.0073L9.96498 15.4076C8.40379 17.2725 7.67142 18.738 7.32435 19.6456C7.32342 19.4913 7.32106 19.3026 7.31644 19.0732C7.29737 18.1258 7.52722 16.0305 7.52722 16.0305C6.47985 17.2273 6.53242 18.6303 6.75117 19.8567C6.32506 19.0371 5.65125 18.3505 4.47388 17.7211C4.47388 17.7211 5.85695 19.3401 6.25243 20.0686C6.6479 20.797 6.77975 20.8716 6.77975 20.8716L6.84253 20.7928L6.87596 20.784L6.86498 20.8283C6.86498 20.8283 7.0363 20.9002 8.03916 20.7481C9.04202 20.596 11.6497 20.741 11.6497 20.741C10.5786 20.261 9.67351 20.0505 8.8364 20.0394C9.14739 19.8768 9.44962 19.6883 9.70719 19.4734C10.827 18.5395 11.8566 16.4263 11.8566 16.4263C10.6827 17.0419 9.24904 18.073 8.20149 19.0073Z" fill="#1F4D23"/>
<path d="M8.20149 19.0073L9.96498 15.4076C8.40379 17.2725 7.67142 18.738 7.32435 19.6456C7.32342 19.4913 7.32106 19.3026 7.31644 19.0732C7.29737 18.1258 7.52722 16.0305 7.52722 16.0305C6.47985 17.2273 6.53242 18.6303 6.75117 19.8567C6.32506 19.0371 5.65125 18.3505 4.47388 17.7211C4.47388 17.7211 5.85695 19.3401 6.25243 20.0686C6.6479 20.797 6.77975 20.8716 6.77975 20.8716L6.84253 20.7928L6.87596 20.784L6.86498 20.8283C6.86498 20.8283 7.0363 20.9002 8.03916 20.7481C9.04202 20.596 11.6497 20.741 11.6497 20.741C10.5786 20.261 9.67351 20.0505 8.8364 20.0394C9.14739 19.8768 9.44962 19.6883 9.70719 19.4734C10.827 18.5395 11.8566 16.4263 11.8566 16.4263C10.6827 17.0419 9.24904 18.073 8.20149 19.0073Z" fill="#1F4D23"/>
<path d="M19.0666 19.0073L20.8301 15.4076C19.2689 17.2725 18.5366 18.738 18.1895 19.6456C18.1886 19.4913 18.1862 19.3026 18.1816 19.0732C18.1625 18.1258 18.3924 16.0305 18.3924 16.0305C17.345 17.2273 17.3976 18.6303 17.6163 19.8567C17.1902 19.0371 16.5164 18.3505 15.339 17.7211C15.339 17.7211 16.7221 19.3401 17.1176 20.0686C17.5131 20.797 17.6449 20.8716 17.6449 20.8716L17.7077 20.7928L17.7411 20.784L17.7301 20.8283C17.7301 20.8283 17.9014 20.9002 18.9043 20.7481C19.9072 20.596 22.5148 20.741 22.5148 20.741C21.4438 20.261 20.5387 20.0505 19.7015 20.0394C20.0125 19.8768 20.3148 19.6883 20.5723 19.4734C21.6922 18.5395 22.7217 16.4263 22.7217 16.4263C21.5478 17.0419 20.1142 18.073 19.0666 19.0073Z" fill="#1F4D23"/>
<path d="M19.0666 19.0073L20.8301 15.4076C19.2689 17.2725 18.5366 18.738 18.1895 19.6456C18.1886 19.4913 18.1862 19.3026 18.1816 19.0732C18.1625 18.1258 18.3924 16.0305 18.3924 16.0305C17.345 17.2273 17.3976 18.6303 17.6163 19.8567C17.1902 19.0371 16.5164 18.3505 15.339 17.7211C15.339 17.7211 16.7221 19.3401 17.1176 20.0686C17.5131 20.797 17.6449 20.8716 17.6449 20.8716L17.7077 20.7928L17.7411 20.784L17.7301 20.8283C17.7301 20.8283 17.9014 20.9002 18.9043 20.7481C19.9072 20.596 22.5148 20.741 22.5148 20.741C21.4438 20.261 20.5387 20.0505 19.7015 20.0394C20.0125 19.8768 20.3148 19.6883 20.5723 19.4734C21.6922 18.5395 22.7217 16.4263 22.7217 16.4263C21.5478 17.0419 20.1142 18.073 19.0666 19.0073Z" fill="#1F4D23"/>
<path d="M17.1493 16.4394L18.9128 12.8397C17.3516 14.7045 16.6192 16.1701 16.2721 17.0776C16.2712 16.9234 16.2688 16.7347 16.2642 16.5053C16.2451 15.5578 16.475 13.4625 16.475 13.4625C15.4276 14.6594 15.4802 16.0623 15.6989 17.2887C15.2728 16.4691 14.599 15.7826 13.4217 15.1531C13.4217 15.1531 14.8047 16.7722 15.2002 17.5006C15.5957 18.229 15.7275 18.3037 15.7275 18.3037L15.7903 18.2248L15.8237 18.2161L15.8127 18.2603C15.8127 18.2603 15.9841 18.3323 16.9869 18.1802C17.9898 18.028 20.5974 18.1731 20.5974 18.1731C19.5264 17.6931 18.6213 17.4825 17.7842 17.4715C18.0952 17.3089 18.3974 17.1203 18.655 16.9055C19.7748 15.9715 20.8044 13.8584 20.8044 13.8584C19.6305 14.474 18.1968 15.5051 17.1493 16.4394Z" fill="#1F4D23"/>
<path d="M17.1493 16.4394L18.9128 12.8397C17.3516 14.7045 16.6192 16.1701 16.2721 17.0776C16.2712 16.9234 16.2688 16.7347 16.2642 16.5053C16.2451 15.5578 16.475 13.4625 16.475 13.4625C15.4276 14.6594 15.4802 16.0623 15.6989 17.2887C15.2728 16.4691 14.599 15.7826 13.4217 15.1531C13.4217 15.1531 14.8047 16.7722 15.2002 17.5006C15.5957 18.229 15.7275 18.3037 15.7275 18.3037L15.7903 18.2248L15.8237 18.2161L15.8127 18.2603C15.8127 18.2603 15.9841 18.3323 16.9869 18.1802C17.9898 18.028 20.5974 18.1731 20.5974 18.1731C19.5264 17.6931 18.6213 17.4825 17.7842 17.4715C18.0952 17.3089 18.3974 17.1203 18.655 16.9055C19.7748 15.9715 20.8044 13.8584 20.8044 13.8584C19.6305 14.474 18.1968 15.5051 17.1493 16.4394Z" fill="#1F4D23"/>
<path d="M5.64499 16.4394L7.40848 12.8397C5.84729 14.7045 5.11492 16.1701 4.76784 17.0776C4.76691 16.9234 4.76455 16.7347 4.75994 16.5053C4.74087 15.5578 4.97071 13.4625 4.97071 13.4625C3.92334 14.6594 3.97591 16.0623 4.19466 17.2887C3.76856 16.4691 3.09474 15.7826 1.91738 15.1531C1.91738 15.1531 3.30044 16.7722 3.69592 17.5006C4.0914 18.229 4.22325 18.3037 4.22325 18.3037L4.28603 18.2248L4.31945 18.2161L4.30847 18.2603C4.30847 18.2603 4.4798 18.3323 5.48266 18.1802C6.48552 18.028 9.09316 18.1731 9.09316 18.1731C8.02213 17.6931 7.11701 17.4825 6.27989 17.4715C6.59088 17.3089 6.89312 17.1203 7.15068 16.9055C8.27053 15.9715 9.30009 13.8584 9.30009 13.8584C8.12619 14.474 6.69253 15.5051 5.64499 16.4394Z" fill="#1F4D23"/>
<path d="M5.64499 16.4394L7.40848 12.8397C5.84729 14.7045 5.11492 16.1701 4.76784 17.0776C4.76691 16.9234 4.76455 16.7347 4.75994 16.5053C4.74087 15.5578 4.97071 13.4625 4.97071 13.4625C3.92334 14.6594 3.97591 16.0623 4.19466 17.2887C3.76856 16.4691 3.09474 15.7826 1.91738 15.1531C1.91738 15.1531 3.30044 16.7722 3.69592 17.5006C4.0914 18.229 4.22325 18.3037 4.22325 18.3037L4.28603 18.2248L4.31945 18.2161L4.30847 18.2603C4.30847 18.2603 4.4798 18.3323 5.48266 18.1802C6.48552 18.028 9.09316 18.1731 9.09316 18.1731C8.02213 17.6931 7.11701 17.4825 6.27989 17.4715C6.59088 17.3089 6.89312 17.1203 7.15068 16.9055C8.27053 15.9715 9.30009 13.8584 9.30009 13.8584C8.12619 14.474 6.69253 15.5051 5.64499 16.4394Z" fill="#1F4D23"/>
<path d="M14.5928 8.73558L16.3562 5.13587C14.7951 7.00074 14.0627 8.46628 13.7156 9.37384C13.7147 9.21957 13.7123 9.03086 13.7077 8.80147C13.6886 7.85403 13.9185 5.75872 13.9185 5.75872C12.8711 6.95557 12.9237 8.35855 13.1424 9.58492C12.7163 8.76531 12.0425 8.07879 10.8651 7.44934C10.8651 7.44934 12.2482 9.06841 12.6437 9.79682C13.0392 10.5252 13.171 10.5998 13.171 10.5998L13.2338 10.521L13.2672 10.5123L13.2562 10.5565C13.2562 10.5565 13.4276 10.6285 14.4304 10.4764C15.4333 10.3242 18.0409 10.4693 18.0409 10.4693C16.9699 9.98929 16.0648 9.77873 15.2277 9.76766C15.5386 9.60507 15.8409 9.41652 16.0984 9.20171C17.2183 8.26773 18.2479 6.15455 18.2479 6.15455C17.074 6.77018 15.6403 7.80126 14.5928 8.73558Z" fill="#1F4D23"/>
<path d="M14.5928 8.73558L16.3562 5.13587C14.7951 7.00074 14.0627 8.46628 13.7156 9.37384C13.7147 9.21957 13.7123 9.03086 13.7077 8.80147C13.6886 7.85403 13.9185 5.75872 13.9185 5.75872C12.8711 6.95557 12.9237 8.35855 13.1424 9.58492C12.7163 8.76531 12.0425 8.07879 10.8651 7.44934C10.8651 7.44934 12.2482 9.06841 12.6437 9.79682C13.0392 10.5252 13.171 10.5998 13.171 10.5998L13.2338 10.521L13.2672 10.5123L13.2562 10.5565C13.2562 10.5565 13.4276 10.6285 14.4304 10.4764C15.4333 10.3242 18.0409 10.4693 18.0409 10.4693C16.9699 9.98929 16.0648 9.77873 15.2277 9.76766C15.5386 9.60507 15.8409 9.41652 16.0984 9.20171C17.2183 8.26773 18.2479 6.15455 18.2479 6.15455C17.074 6.77018 15.6403 7.80126 14.5928 8.73558Z" fill="#1F4D23"/>
<path d="M20.3449 4.24169L22.1084 0.641984C20.5472 2.50685 19.8148 3.9724 19.4677 4.87996C19.4668 4.72568 19.4645 4.53698 19.4598 4.30758C19.4408 3.36015 19.6706 1.26484 19.6706 1.26484C18.6232 2.46168 18.6758 3.86466 18.8946 5.09103C18.4685 4.27143 17.7946 3.5849 16.6173 2.95545C16.6173 2.95545 18.0003 4.57452 18.3958 5.30294C18.7913 6.03135 18.9232 6.10596 18.9232 6.10596L18.9859 6.02715L19.0194 6.01841L19.0084 6.06263C19.0084 6.06263 19.1797 6.13461 20.1826 5.98247C21.1854 5.83034 23.7931 5.97537 23.7931 5.97537C22.722 5.4954 21.8169 5.28484 20.9798 5.27378C21.2908 5.11118 21.593 4.92264 21.8506 4.70782C22.9704 3.77384 24 1.66067 24 1.66067C22.8261 2.27629 21.3924 3.30738 20.3449 4.24169Z" fill="#1F4D23"/>
<path d="M20.3449 4.24169L22.1084 0.641984C20.5472 2.50685 19.8148 3.9724 19.4677 4.87996C19.4668 4.72568 19.4645 4.53698 19.4598 4.30758C19.4408 3.36015 19.6706 1.26484 19.6706 1.26484C18.6232 2.46168 18.6758 3.86466 18.8946 5.09103C18.4685 4.27143 17.7946 3.5849 16.6173 2.95545C16.6173 2.95545 18.0003 4.57452 18.3958 5.30294C18.7913 6.03135 18.9232 6.10596 18.9232 6.10596L18.9859 6.02715L19.0194 6.01841L19.0084 6.06263C19.0084 6.06263 19.1797 6.13461 20.1826 5.98247C21.1854 5.83034 23.7931 5.97537 23.7931 5.97537C22.722 5.4954 21.8169 5.28484 20.9798 5.27378C21.2908 5.11118 21.593 4.92264 21.8506 4.70782C22.9704 3.77384 24 1.66067 24 1.66067C22.8261 2.27629 21.3924 3.30738 20.3449 4.24169Z" fill="#1F4D23"/>
<path d="M17.7884 3.59971L19.5519 0C17.9907 1.86487 17.2583 3.33041 16.9112 4.23797C16.9103 4.0837 16.908 3.895 16.9033 3.6656C16.8843 2.71816 17.1141 0.622855 17.1141 0.622855C16.0667 1.8197 16.1193 3.22268 16.3381 4.44905C15.912 3.62944 15.2381 2.94292 14.0608 2.31347C14.0608 2.31347 15.4438 3.93254 15.8393 4.66095C16.2348 5.38937 16.3666 5.46398 16.3666 5.46398L16.4294 5.38517L16.4629 5.37643L16.4519 5.42064C16.4519 5.42064 16.6232 5.49263 17.6261 5.34049C18.6289 5.18835 21.2366 5.33339 21.2366 5.33339C20.1655 4.85342 19.2604 4.64286 18.4233 4.63179C18.7343 4.4692 19.0365 4.28065 19.2941 4.06584C20.4139 3.13186 21.4435 1.01868 21.4435 1.01868C20.2696 1.63431 18.8359 2.66539 17.7884 3.59971Z" fill="#1F4D23"/>
<path d="M17.7884 3.59971L19.5519 0C17.9907 1.86487 17.2583 3.33041 16.9112 4.23797C16.9103 4.0837 16.908 3.895 16.9033 3.6656C16.8843 2.71816 17.1141 0.622855 17.1141 0.622855C16.0667 1.8197 16.1193 3.22268 16.3381 4.44905C15.912 3.62944 15.2381 2.94292 14.0608 2.31347C14.0608 2.31347 15.4438 3.93254 15.8393 4.66095C16.2348 5.38937 16.3666 5.46398 16.3666 5.46398L16.4294 5.38517L16.4629 5.37643L16.4519 5.42064C16.4519 5.42064 16.6232 5.49263 17.6261 5.34049C18.6289 5.18835 21.2366 5.33339 21.2366 5.33339C20.1655 4.85342 19.2604 4.64286 18.4233 4.63179C18.7343 4.4692 19.0365 4.28065 19.2941 4.06584C20.4139 3.13186 21.4435 1.01868 21.4435 1.01868C20.2696 1.63431 18.8359 2.66539 17.7884 3.59971Z" fill="#1F4D23"/>
<path d="M12.0362 3.59971L13.7997 0C12.2386 1.86487 11.5062 3.33041 11.1591 4.23797C11.1582 4.0837 11.1558 3.895 11.1512 3.6656C11.1321 2.71816 11.362 0.622855 11.362 0.622855C10.3146 1.8197 10.3672 3.22268 10.5859 4.44905C10.1598 3.62944 9.48601 2.94292 8.30864 2.31347C8.30864 2.31347 9.6917 3.93254 10.0872 4.66095C10.4827 5.38937 10.6145 5.46398 10.6145 5.46398L10.6773 5.38517L10.7107 5.37643L10.6997 5.42064C10.6997 5.42064 10.8711 5.49263 11.8739 5.34049C12.8768 5.18835 15.4844 5.33339 15.4844 5.33339C14.4134 4.85342 13.5083 4.64286 12.6712 4.63179C12.9821 4.4692 13.2844 4.28065 13.5419 4.06584C14.6618 3.13186 15.6914 1.01868 15.6914 1.01868C14.5175 1.63431 13.0838 2.66539 12.0362 3.59971Z" fill="#1F4D23"/>
<path d="M12.0362 3.59971L13.7997 0C12.2386 1.86487 11.5062 3.33041 11.1591 4.23797C11.1582 4.0837 11.1558 3.895 11.1512 3.6656C11.1321 2.71816 11.362 0.622855 11.362 0.622855C10.3146 1.8197 10.3672 3.22268 10.5859 4.44905C10.1598 3.62944 9.48601 2.94292 8.30864 2.31347C8.30864 2.31347 9.6917 3.93254 10.0872 4.66095C10.4827 5.38937 10.6145 5.46398 10.6145 5.46398L10.6773 5.38517L10.7107 5.37643L10.6997 5.42064C10.6997 5.42064 10.8711 5.49263 11.8739 5.34049C12.8768 5.18835 15.4844 5.33339 15.4844 5.33339C14.4134 4.85342 13.5083 4.64286 12.6712 4.63179C12.9821 4.4692 13.2844 4.28065 13.5419 4.06584C14.6618 3.13186 15.6914 1.01868 15.6914 1.01868C14.5175 1.63431 13.0838 2.66539 12.0362 3.59971Z" fill="#1F4D23"/>
<path d="M5.00586 4.24169L6.76935 0.641984C5.20816 2.50685 4.47579 3.9724 4.12872 4.87996C4.12779 4.72568 4.12543 4.53698 4.12081 4.30758C4.10174 3.36015 4.33158 1.26484 4.33158 1.26484C3.28421 2.46168 3.33679 3.86466 3.55553 5.09103C3.12943 4.27143 2.45562 3.5849 1.27825 2.95545C1.27825 2.95545 2.66131 4.57452 3.05679 5.30294C3.45227 6.03135 3.58412 6.10596 3.58412 6.10596L3.6469 6.02715L3.68033 6.01841L3.66935 6.06263C3.66935 6.06263 3.84067 6.13461 4.84353 5.98247C5.84639 5.83034 8.45403 5.97537 8.45403 5.97537C7.38301 5.4954 6.47788 5.28484 5.64077 5.27378C5.95176 5.11118 6.25399 4.92264 6.51155 4.70782C7.6314 3.77384 8.66097 1.66067 8.66097 1.66067C7.48707 2.27629 6.05341 3.30738 5.00586 4.24169Z" fill="#1F4D23"/>
<path d="M5.00586 4.24169L6.76935 0.641984C5.20816 2.50685 4.47579 3.9724 4.12872 4.87996C4.12779 4.72568 4.12543 4.53698 4.12081 4.30758C4.10174 3.36015 4.33158 1.26484 4.33158 1.26484C3.28421 2.46168 3.33679 3.86466 3.55553 5.09103C3.12943 4.27143 2.45562 3.5849 1.27825 2.95545C1.27825 2.95545 2.66131 4.57452 3.05679 5.30294C3.45227 6.03135 3.58412 6.10596 3.58412 6.10596L3.6469 6.02715L3.68033 6.01841L3.66935 6.06263C3.66935 6.06263 3.84067 6.13461 4.84353 5.98247C5.84639 5.83034 8.45403 5.97537 8.45403 5.97537C7.38301 5.4954 6.47788 5.28484 5.64077 5.27378C5.95176 5.11118 6.25399 4.92264 6.51155 4.70782C7.6314 3.77384 8.66097 1.66067 8.66097 1.66067C7.48707 2.27629 6.05341 3.30738 5.00586 4.24169Z" fill="#1F4D23"/>
<path d="M3.72761 19.0073L5.4911 15.4076C3.92991 17.2725 3.19754 18.738 2.85047 19.6456C2.84954 19.4913 2.84717 19.3026 2.84256 19.0732C2.82349 18.1258 3.05333 16.0305 3.05333 16.0305C2.00596 17.2273 2.05854 18.6303 2.27728 19.8567C1.85118 19.0371 1.17736 18.3505 0 17.7211C0 17.7211 1.38306 19.3401 1.77854 20.0686C2.17402 20.797 2.30587 20.8716 2.30587 20.8716L2.36865 20.7928L2.40207 20.784L2.3911 20.8283C2.3911 20.8283 2.56242 20.9002 3.56528 20.7481C4.56814 20.596 7.17578 20.741 7.17578 20.741C6.10475 20.261 5.19963 20.0505 4.36251 20.0394C4.6735 19.8768 4.97574 19.6883 5.2333 19.4734C6.35315 18.5395 7.38271 16.4263 7.38271 16.4263C6.20882 17.0419 4.77516 18.073 3.72761 19.0073Z" fill="#1F4D23"/>
<path d="M3.72761 19.0073L5.4911 15.4076C3.92991 17.2725 3.19754 18.738 2.85047 19.6456C2.84954 19.4913 2.84717 19.3026 2.84256 19.0732C2.82349 18.1258 3.05333 16.0305 3.05333 16.0305C2.00596 17.2273 2.05854 18.6303 2.27728 19.8567C1.85118 19.0371 1.17736 18.3505 0 17.7211C0 17.7211 1.38306 19.3401 1.77854 20.0686C2.17402 20.797 2.30587 20.8716 2.30587 20.8716L2.36865 20.7928L2.40207 20.784L2.3911 20.8283C2.3911 20.8283 2.56242 20.9002 3.56528 20.7481C4.56814 20.596 7.17578 20.741 7.17578 20.741C6.10475 20.261 5.19963 20.0505 4.36251 20.0394C4.6735 19.8768 4.97574 19.6883 5.2333 19.4734C6.35315 18.5395 7.38271 16.4263 7.38271 16.4263C6.20882 17.0419 4.77516 18.073 3.72761 19.0073Z" fill="#1F4D23"/>
<path d="M4.21194 15.7319L5.97543 12.1322C4.41425 13.997 3.68188 15.4626 3.3348 16.3701C3.33387 16.2159 3.33151 16.0272 3.32689 15.7978C3.30783 14.8503 3.53767 12.755 3.53767 12.755C2.4903 13.9519 2.54287 15.3548 2.76162 16.5812C2.33552 15.7616 1.6617 15.0751 0.484338 14.4456C0.484338 14.4456 1.8674 16.0647 2.26288 16.7931C2.65836 17.5215 2.79021 17.5962 2.79021 17.5962L2.85299 17.5173L2.88641 17.5086L2.87543 17.5528C2.87543 17.5528 3.04676 17.6248 4.04962 17.4727C5.05248 17.3205 7.66012 17.4656 7.66012 17.4656C6.58909 16.9856 5.68396 16.775 4.84685 16.764C5.15784 16.6014 5.46008 16.4128 5.71764 16.198C6.83749 15.264 7.86705 13.1509 7.86705 13.1509C6.69315 13.7665 5.25949 14.7976 4.21194 15.7319Z" fill="#1F4D23"/>
<path d="M4.21194 15.7319L5.97543 12.1322C4.41425 13.997 3.68188 15.4626 3.3348 16.3701C3.33387 16.2159 3.33151 16.0272 3.32689 15.7978C3.30783 14.8503 3.53767 12.755 3.53767 12.755C2.4903 13.9519 2.54287 15.3548 2.76162 16.5812C2.33552 15.7616 1.6617 15.0751 0.484338 14.4456C0.484338 14.4456 1.8674 16.0647 2.26288 16.7931C2.65836 17.5215 2.79021 17.5962 2.79021 17.5962L2.85299 17.5173L2.88641 17.5086L2.87543 17.5528C2.87543 17.5528 3.04676 17.6248 4.04962 17.4727C5.05248 17.3205 7.66012 17.4656 7.66012 17.4656C6.58909 16.9856 5.68396 16.775 4.84685 16.764C5.15784 16.6014 5.46008 16.4128 5.71764 16.198C6.83749 15.264 7.86705 13.1509 7.86705 13.1509C6.69315 13.7665 5.25949 14.7976 4.21194 15.7319Z" fill="#1F4D23"/>
<path d="M10.5873 4.52507L12.3508 0.925359C10.7896 2.79023 10.0572 4.25577 9.71015 5.16333C9.70922 5.00906 9.70686 4.82036 9.70224 4.59096C9.68318 3.64352 9.91302 1.54821 9.91302 1.54821C8.86565 2.74506 8.91822 4.14804 9.13697 5.3744C8.71086 4.5548 8.03705 3.86828 6.85968 3.23883C6.85968 3.23883 8.24275 4.8579 8.63823 5.58631C9.03371 6.31473 9.16556 6.38934 9.16556 6.38934L9.22834 6.31053L9.26176 6.30179L9.25078 6.346C9.25078 6.346 9.4221 6.41799 10.425 6.26585C11.4278 6.11371 14.0355 6.25875 14.0355 6.25875C12.9644 5.77878 12.0593 5.56822 11.2222 5.55715C11.5332 5.39456 11.8354 5.20601 12.093 4.9912C13.2128 4.05722 14.2424 1.94404 14.2424 1.94404C13.0685 2.55967 11.6348 3.59075 10.5873 4.52507Z" fill="#1F4D23"/>
<path d="M10.5873 4.52507L12.3508 0.925359C10.7896 2.79023 10.0572 4.25577 9.71015 5.16333C9.70922 5.00906 9.70686 4.82036 9.70224 4.59096C9.68318 3.64352 9.91302 1.54821 9.91302 1.54821C8.86565 2.74506 8.91822 4.14804 9.13697 5.3744C8.71086 4.5548 8.03705 3.86828 6.85968 3.23883C6.85968 3.23883 8.24275 4.8579 8.63823 5.58631C9.03371 6.31473 9.16556 6.38934 9.16556 6.38934L9.22834 6.31053L9.26176 6.30179L9.25078 6.346C9.25078 6.346 9.4221 6.41799 10.425 6.26585C11.4278 6.11371 14.0355 6.25875 14.0355 6.25875C12.9644 5.77878 12.0593 5.56822 11.2222 5.55715C11.5332 5.39456 11.8354 5.20601 12.093 4.9912C13.2128 4.05722 14.2424 1.94404 14.2424 1.94404C13.0685 2.55967 11.6348 3.59075 10.5873 4.52507Z" fill="#1F4D23"/>
<path d="M20.3162 14.131L22.0797 10.5313C20.5185 12.3962 19.7861 13.8617 19.439 14.7693C19.4381 14.615 19.4357 14.4263 19.4311 14.1969C19.4121 13.2495 19.6419 11.1541 19.6419 11.1541C18.5945 12.351 18.6471 13.754 18.8659 14.9803C18.4398 14.1607 17.7659 13.4742 16.5886 12.8448C16.5886 12.8448 17.9716 14.4638 18.3671 15.1922C18.7626 15.9207 18.8944 15.9953 18.8944 15.9953L18.9572 15.9165L18.9906 15.9077L18.9797 15.9519C18.9797 15.9519 19.151 16.0239 20.1539 15.8718C21.1567 15.7196 23.7644 15.8647 23.7644 15.8647C22.6933 15.3847 21.7882 15.1741 20.9511 15.1631C21.2621 15.0005 21.5643 14.8119 21.8219 14.5971C22.9417 13.6632 23.9713 11.55 23.9713 11.55C22.7974 12.1656 21.3637 13.1967 20.3162 14.131Z" fill="#1F4D23"/>
<path d="M20.3162 14.131L22.0797 10.5313C20.5185 12.3962 19.7861 13.8617 19.439 14.7693C19.4381 14.615 19.4357 14.4263 19.4311 14.1969C19.4121 13.2495 19.6419 11.1541 19.6419 11.1541C18.5945 12.351 18.6471 13.754 18.8659 14.9803C18.4398 14.1607 17.7659 13.4742 16.5886 12.8448C16.5886 12.8448 17.9716 14.4638 18.3671 15.1922C18.7626 15.9207 18.8944 15.9953 18.8944 15.9953L18.9572 15.9165L18.9906 15.9077L18.9797 15.9519C18.9797 15.9519 19.151 16.0239 20.1539 15.8718C21.1567 15.7196 23.7644 15.8647 23.7644 15.8647C22.6933 15.3847 21.7882 15.1741 20.9511 15.1631C21.2621 15.0005 21.5643 14.8119 21.8219 14.5971C22.9417 13.6632 23.9713 11.55 23.9713 11.55C22.7974 12.1656 21.3637 13.1967 20.3162 14.131Z" fill="#1F4D23"/>
<path d="M4.53556 12.5298L6.29906 8.93009C4.73787 10.795 4.0055 12.2605 3.65842 13.1681C3.65749 13.0138 3.65513 12.8251 3.65052 12.5957C3.63145 11.6483 3.86129 9.55295 3.86129 9.55295C2.81392 10.7498 2.86649 12.1528 3.08524 13.3791C2.65914 12.5595 1.98532 11.873 0.807958 11.2436C0.807958 11.2436 2.19102 12.8626 2.5865 13.591C2.98198 14.3195 3.11383 14.3941 3.11383 14.3941L3.17661 14.3153L3.21003 14.3065L3.19905 14.3507C3.19905 14.3507 3.37038 14.4227 4.37324 14.2706C5.3761 14.1184 7.98374 14.2635 7.98374 14.2635C6.91271 13.7835 6.00759 13.5729 5.17047 13.5619C5.48146 13.3993 5.7837 13.2107 6.04126 12.9959C7.16111 12.062 8.19067 9.94878 8.19067 9.94878C7.01677 10.5644 5.58311 11.5955 4.53556 12.5298Z" fill="#1F4D23"/>
<path d="M4.53556 12.5298L6.29906 8.93009C4.73787 10.795 4.0055 12.2605 3.65842 13.1681C3.65749 13.0138 3.65513 12.8251 3.65052 12.5957C3.63145 11.6483 3.86129 9.55295 3.86129 9.55295C2.81392 10.7498 2.86649 12.1528 3.08524 13.3791C2.65914 12.5595 1.98532 11.873 0.807958 11.2436C0.807958 11.2436 2.19102 12.8626 2.5865 13.591C2.98198 14.3195 3.11383 14.3941 3.11383 14.3941L3.17661 14.3153L3.21003 14.3065L3.19905 14.3507C3.19905 14.3507 3.37038 14.4227 4.37324 14.2706C5.3761 14.1184 7.98374 14.2635 7.98374 14.2635C6.91271 13.7835 6.00759 13.5729 5.17047 13.5619C5.48146 13.3993 5.7837 13.2107 6.04126 12.9959C7.16111 12.062 8.19067 9.94878 8.19067 9.94878C7.01677 10.5644 5.58311 11.5955 4.53556 12.5298Z" fill="#1F4D23"/>
<path d="M12.9781 18.1334L14.7416 14.5337C13.1804 16.3985 12.448 17.8641 12.1009 18.7716C12.1 18.6174 12.0977 18.4287 12.093 18.1993C12.074 17.2518 12.3038 15.1565 12.3038 15.1565C11.2564 16.3534 11.309 17.7563 11.5278 18.9827C11.1017 18.1631 10.4278 17.4766 9.25048 16.8471C9.25048 16.8471 10.6335 18.4662 11.029 19.1946C11.4245 19.923 11.5563 19.9976 11.5563 19.9976L11.6191 19.9188L11.6526 19.9101L11.6416 19.9543C11.6416 19.9543 11.8129 20.0263 12.8158 19.8741C13.8186 19.722 16.4263 19.867 16.4263 19.867C15.3552 19.3871 14.4501 19.1765 13.613 19.1654C13.924 19.0029 14.2262 18.8143 14.4838 18.5995C15.6036 17.6655 16.6332 15.5523 16.6332 15.5523C15.4593 16.168 14.0256 17.1991 12.9781 18.1334Z" fill="#1F4D23"/>
<path d="M12.9781 18.1334L14.7416 14.5337C13.1804 16.3985 12.448 17.8641 12.1009 18.7716C12.1 18.6174 12.0977 18.4287 12.093 18.1993C12.074 17.2518 12.3038 15.1565 12.3038 15.1565C11.2564 16.3534 11.309 17.7563 11.5278 18.9827C11.1017 18.1631 10.4278 17.4766 9.25048 16.8471C9.25048 16.8471 10.6335 18.4662 11.029 19.1946C11.4245 19.923 11.5563 19.9976 11.5563 19.9976L11.6191 19.9188L11.6526 19.9101L11.6416 19.9543C11.6416 19.9543 11.8129 20.0263 12.8158 19.8741C13.8186 19.722 16.4263 19.867 16.4263 19.867C15.3552 19.3871 14.4501 19.1765 13.613 19.1654C13.924 19.0029 14.2262 18.8143 14.4838 18.5995C15.6036 17.6655 16.6332 15.5523 16.6332 15.5523C15.4593 16.168 14.0256 17.1991 12.9781 18.1334Z" fill="#1F4D23"/>
<path d="M8.99353 21.3351L10.757 17.7354C9.19584 19.6003 8.46347 21.0658 8.11639 21.9734C8.11546 21.8191 8.1131 21.6304 8.10848 21.401C8.08942 20.4536 8.31926 18.3583 8.31926 18.3583C7.27189 19.5551 7.32446 20.9581 7.54321 22.1845C7.11711 21.3649 6.44329 20.6783 5.26593 20.0489C5.26593 20.0489 6.64899 21.668 7.04447 22.3964C7.43995 23.1248 7.5718 23.1994 7.5718 23.1994L7.63458 23.1206L7.668 23.1119L7.65702 23.1561C7.65702 23.1561 7.82835 23.2281 8.83121 23.0759C9.83407 22.9238 12.4417 23.0688 12.4417 23.0688C11.3707 22.5888 10.4656 22.3783 9.62844 22.3672C9.93943 22.2046 10.2417 22.0161 10.4992 21.8013C11.6191 20.8673 12.6486 18.7541 12.6486 18.7541C11.4747 19.3697 10.0411 20.4008 8.99353 21.3351Z" fill="#1F4D23"/>
<path d="M8.99353 21.3351L10.757 17.7354C9.19584 19.6003 8.46347 21.0658 8.11639 21.9734C8.11546 21.8191 8.1131 21.6304 8.10848 21.401C8.08942 20.4536 8.31926 18.3583 8.31926 18.3583C7.27189 19.5551 7.32446 20.9581 7.54321 22.1845C7.11711 21.3649 6.44329 20.6783 5.26593 20.0489C5.26593 20.0489 6.64899 21.668 7.04447 22.3964C7.43995 23.1248 7.5718 23.1994 7.5718 23.1994L7.63458 23.1206L7.668 23.1119L7.65702 23.1561C7.65702 23.1561 7.82835 23.2281 8.83121 23.0759C9.83407 22.9238 12.4417 23.0688 12.4417 23.0688C11.3707 22.5888 10.4656 22.3783 9.62844 22.3672C9.93943 22.2046 10.2417 22.0161 10.4992 21.8013C11.6191 20.8673 12.6486 18.7541 12.6486 18.7541C11.4747 19.3697 10.0411 20.4008 8.99353 21.3351Z" fill="#1F4D23"/>
<path d="M4.21194 6.92655L5.97543 3.32684C4.41425 5.19171 3.68188 6.65726 3.3348 7.56481C3.33387 7.41054 3.33151 7.22184 3.32689 6.99244C3.30783 6.04501 3.53767 3.9497 3.53767 3.9497C2.4903 5.14654 2.54287 6.54952 2.76162 7.77589C2.33552 6.95628 1.6617 6.26976 0.484338 5.64031C0.484338 5.64031 1.8674 7.25938 2.26288 7.9878C2.65836 8.71621 2.79021 8.79082 2.79021 8.79082L2.85299 8.71201L2.88641 8.70327L2.87543 8.74748C2.87543 8.74748 3.04676 8.81947 4.04962 8.66733C5.05248 8.5152 7.66012 8.66023 7.66012 8.66023C6.58909 8.18026 5.68397 7.9697 4.84685 7.95863C5.15784 7.79604 5.46008 7.6075 5.71764 7.39268C6.83749 6.4587 7.86705 4.34553 7.86705 4.34553C6.69315 4.96115 5.25949 5.99224 4.21194 6.92655Z" fill="#1F4D23"/>
<path d="M4.21194 6.92655L5.97543 3.32684C4.41425 5.19171 3.68188 6.65726 3.3348 7.56481C3.33387 7.41054 3.33151 7.22184 3.32689 6.99244C3.30783 6.04501 3.53767 3.9497 3.53767 3.9497C2.4903 5.14654 2.54287 6.54952 2.76162 7.77589C2.33552 6.95628 1.6617 6.26976 0.484338 5.64031C0.484338 5.64031 1.8674 7.25938 2.26288 7.9878C2.65836 8.71621 2.79021 8.79082 2.79021 8.79082L2.85299 8.71201L2.88641 8.70327L2.87543 8.74748C2.87543 8.74748 3.04676 8.81947 4.04962 8.66733C5.05248 8.5152 7.66012 8.66023 7.66012 8.66023C6.58909 8.18026 5.68397 7.9697 4.84685 7.95863C5.15784 7.79604 5.46008 7.6075 5.71764 7.39268C6.83749 6.4587 7.86705 4.34553 7.86705 4.34553C6.69315 4.96115 5.25949 5.99224 4.21194 6.92655Z" fill="#1F4D23"/>
<path d="M4.69316 21.8185L6.45665 18.2188C4.89546 20.0837 4.16309 21.5492 3.81602 22.4568C3.81509 22.3025 3.81273 22.1138 3.80811 21.8844C3.78905 20.937 4.01889 18.8416 4.01889 18.8416C2.97152 20.0385 3.02409 21.4415 3.24284 22.6678C2.81673 21.8482 2.14292 21.1617 0.965555 20.5323C0.965555 20.5323 2.34862 22.1513 2.7441 22.8797C3.13958 23.6082 3.27143 23.6828 3.27143 23.6828L3.33421 23.604L3.36763 23.5952L3.35665 23.6394C3.35665 23.6394 3.52797 23.7114 4.53083 23.5593C5.53369 23.4071 8.14134 23.5522 8.14134 23.5522C7.07031 23.0722 6.16518 22.8617 5.32807 22.8506C5.63906 22.688 5.94129 22.4994 6.19886 22.2846C7.31871 21.3507 8.34827 19.2375 8.34827 19.2375C7.17437 19.8531 5.74071 20.8842 4.69316 21.8185Z" fill="#1F4D23"/>
<path d="M4.69316 21.8185L6.45665 18.2188C4.89546 20.0837 4.16309 21.5492 3.81602 22.4568C3.81509 22.3025 3.81273 22.1138 3.80811 21.8844C3.78905 20.937 4.01889 18.8416 4.01889 18.8416C2.97152 20.0385 3.02409 21.4415 3.24284 22.6678C2.81673 21.8482 2.14292 21.1617 0.965555 20.5323C0.965555 20.5323 2.34862 22.1513 2.7441 22.8797C3.13958 23.6082 3.27143 23.6828 3.27143 23.6828L3.33421 23.604L3.36763 23.5952L3.35665 23.6394C3.35665 23.6394 3.52797 23.7114 4.53083 23.5593C5.53369 23.4071 8.14134 23.5522 8.14134 23.5522C7.07031 23.0722 6.16518 22.8617 5.32807 22.8506C5.63906 22.688 5.94129 22.4994 6.19886 22.2846C7.31871 21.3507 8.34827 19.2375 8.34827 19.2375C7.17437 19.8531 5.74071 20.8842 4.69316 21.8185Z" fill="#1F4D23"/>
<path d="M5.64811 18.6167L7.4116 15.017C5.85041 16.8819 5.11804 18.3474 4.77096 19.255C4.77004 19.1007 4.76767 18.912 4.76306 18.6826C4.74399 17.7352 4.97383 15.6399 4.97383 15.6399C3.92646 16.8367 3.97904 18.2397 4.19778 19.4661C3.77168 18.6465 3.09786 17.9599 1.9205 17.3305C1.9205 17.3305 3.30356 18.9496 3.69904 19.678C4.09452 20.4064 4.22637 20.481 4.22637 20.481L4.28915 20.4022L4.32257 20.3935L4.3116 20.4377C4.3116 20.4377 4.48292 20.5097 5.48578 20.3575C6.48864 20.2054 9.09628 20.3504 9.09628 20.3504C8.02526 19.8704 7.12013 19.6599 6.28301 19.6488C6.594 19.4862 6.89624 19.2977 7.1538 19.0829C8.27365 18.1489 9.30321 16.0357 9.30321 16.0357C8.12932 16.6513 6.69565 17.6824 5.64811 18.6167Z" fill="#1F4D23"/>
<path d="M5.64811 18.6167L7.4116 15.017C5.85041 16.8819 5.11804 18.3474 4.77096 19.255C4.77004 19.1007 4.76767 18.912 4.76306 18.6826C4.74399 17.7352 4.97383 15.6399 4.97383 15.6399C3.92646 16.8367 3.97904 18.2397 4.19778 19.4661C3.77168 18.6465 3.09786 17.9599 1.9205 17.3305C1.9205 17.3305 3.30356 18.9496 3.69904 19.678C4.09452 20.4064 4.22637 20.481 4.22637 20.481L4.28915 20.4022L4.32257 20.3935L4.3116 20.4377C4.3116 20.4377 4.48292 20.5097 5.48578 20.3575C6.48864 20.2054 9.09628 20.3504 9.09628 20.3504C8.02526 19.8704 7.12013 19.6599 6.28301 19.6488C6.594 19.4862 6.89624 19.2977 7.1538 19.0829C8.27365 18.1489 9.30321 16.0357 9.30321 16.0357C8.12932 16.6513 6.69565 17.6824 5.64811 18.6167Z" fill="#1F4D23"/>
<path d="M12.9781 22.1357L14.7416 18.536C13.1804 20.4009 12.448 21.8664 12.1009 22.774C12.1 22.6197 12.0977 22.431 12.093 22.2016C12.074 21.2542 12.3038 19.1589 12.3038 19.1589C11.2564 20.3557 11.309 21.7587 11.5278 22.9851C11.1017 22.1655 10.4278 21.4789 9.25048 20.8495C9.25048 20.8495 10.6335 22.4686 11.029 23.197C11.4245 23.9254 11.5563 24 11.5563 24L11.6191 23.9212L11.6526 23.9125L11.6416 23.9567C11.6416 23.9567 11.8129 24.0287 12.8158 23.8765C13.8186 23.7244 16.4263 23.8694 16.4263 23.8694C15.3552 23.3894 14.4501 23.1789 13.613 23.1678C13.924 23.0052 14.2262 22.8167 14.4838 22.6019C15.6036 21.6679 16.6332 19.5547 16.6332 19.5547C15.4593 20.1703 14.0256 21.2014 12.9781 22.1357Z" fill="#1F4D23"/>
<path d="M12.9781 22.1357L14.7416 18.536C13.1804 20.4009 12.448 21.8664 12.1009 22.774C12.1 22.6197 12.0977 22.431 12.093 22.2016C12.074 21.2542 12.3038 19.1589 12.3038 19.1589C11.2564 20.3557 11.309 21.7587 11.5278 22.9851C11.1017 22.1655 10.4278 21.4789 9.25048 20.8495C9.25048 20.8495 10.6335 22.4686 11.029 23.197C11.4245 23.9254 11.5563 24 11.5563 24L11.6191 23.9212L11.6526 23.9125L11.6416 23.9567C11.6416 23.9567 11.8129 24.0287 12.8158 23.8765C13.8186 23.7244 16.4263 23.8694 16.4263 23.8694C15.3552 23.3894 14.4501 23.1789 13.613 23.1678C13.924 23.0052 14.2262 22.8167 14.4838 22.6019C15.6036 21.6679 16.6332 19.5547 16.6332 19.5547C15.4593 20.1703 14.0256 21.2014 12.9781 22.1357Z" fill="#1F4D23"/>
<path d="M19.3534 21.3351L21.1169 17.7354C19.5557 19.6003 18.8234 21.0658 18.4763 21.9734C18.4754 21.8191 18.473 21.6304 18.4684 21.401C18.4493 20.4536 18.6792 18.3583 18.6792 18.3583C17.6318 19.5551 17.6844 20.9581 17.9031 22.1845C17.477 21.3649 16.8032 20.6783 15.6258 20.0489C15.6258 20.0489 17.0089 21.668 17.4044 22.3964C17.7998 23.1248 17.9317 23.1994 17.9317 23.1994L17.9945 23.1206L18.0279 23.1119L18.0169 23.1561C18.0169 23.1561 18.1882 23.2281 19.1911 23.0759C20.194 22.9238 22.8016 23.0688 22.8016 23.0688C21.7306 22.5888 20.8255 22.3783 19.9883 22.3672C20.2993 22.2046 20.6016 22.0161 20.8591 21.8013C21.979 20.8673 23.0085 18.7541 23.0085 18.7541C21.8346 19.3697 20.401 20.4008 19.3534 21.3351Z" fill="#1F4D23"/>
<path d="M19.3534 21.3351L21.1169 17.7354C19.5557 19.6003 18.8234 21.0658 18.4763 21.9734C18.4754 21.8191 18.473 21.6304 18.4684 21.401C18.4493 20.4536 18.6792 18.3583 18.6792 18.3583C17.6318 19.5551 17.6844 20.9581 17.9031 22.1845C17.477 21.3649 16.8032 20.6783 15.6258 20.0489C15.6258 20.0489 17.0089 21.668 17.4044 22.3964C17.7998 23.1248 17.9317 23.1994 17.9317 23.1994L17.9945 23.1206L18.0279 23.1119L18.0169 23.1561C18.0169 23.1561 18.1882 23.2281 19.1911 23.0759C20.194 22.9238 22.8016 23.0688 22.8016 23.0688C21.7306 22.5888 20.8255 22.3783 19.9883 22.3672C20.2993 22.2046 20.6016 22.0161 20.8591 21.8013C21.979 20.8673 23.0085 18.7541 23.0085 18.7541C21.8346 19.3697 20.401 20.4008 19.3534 21.3351Z" fill="#1F4D23"/>
<path d="M5.00898 4.52507L6.77247 0.925359C5.21128 2.79023 4.47891 4.25577 4.13184 5.16333C4.13091 5.00906 4.12855 4.82036 4.12393 4.59096C4.10486 3.64352 4.33471 1.54821 4.33471 1.54821C3.28733 2.74506 3.33991 4.14803 3.55865 5.3744C3.13255 4.5548 2.45874 3.86828 1.28137 3.23883C1.28137 3.23883 2.66444 4.8579 3.05991 5.58631C3.45539 6.31473 3.58724 6.38934 3.58724 6.38934L3.65002 6.31053L3.68345 6.30178L3.67247 6.346C3.67247 6.346 3.84379 6.41799 4.84665 6.26585C5.84951 6.11371 8.45716 6.25875 8.45716 6.25875C7.38613 5.77878 6.481 5.56822 5.64389 5.55715C5.95487 5.39456 6.25711 5.20601 6.51468 4.9912C7.63453 4.05722 8.66409 1.94404 8.66409 1.94404C7.49019 2.55967 6.05653 3.59075 5.00898 4.52507Z" fill="#1F4D23"/>
<path d="M5.00898 4.52507L6.77247 0.925359C5.21128 2.79023 4.47891 4.25577 4.13184 5.16333C4.13091 5.00906 4.12855 4.82036 4.12393 4.59096C4.10486 3.64352 4.33471 1.54821 4.33471 1.54821C3.28733 2.74506 3.33991 4.14803 3.55865 5.3744C3.13255 4.5548 2.45874 3.86828 1.28137 3.23883C1.28137 3.23883 2.66444 4.8579 3.05991 5.58631C3.45539 6.31473 3.58724 6.38934 3.58724 6.38934L3.65002 6.31053L3.68345 6.30178L3.67247 6.346C3.67247 6.346 3.84379 6.41799 4.84665 6.26585C5.84951 6.11371 8.45716 6.25875 8.45716 6.25875C7.38613 5.77878 6.481 5.56822 5.64389 5.55715C5.95487 5.39456 6.25711 5.20601 6.51468 4.9912C7.63453 4.05722 8.66409 1.94404 8.66409 1.94404C7.49019 2.55967 6.05653 3.59075 5.00898 4.52507Z" fill="#1F4D23"/>
</svg>
