<svg width="24" height="24" viewBox="0 0 24 24" fill="none" xmlns="http://www.w3.org/2000/svg">
<path d="M6.50384 1L9.99998 3.29166L6.50384 6.5L3 3.29166L6.50384 1Z" fill="#D9D9D9"/>
<path fill-rule="evenodd" clip-rule="evenodd" d="M6.50333 2.08098L4.46403 3.41476L6.50321 5.28196L8.538 3.41467L6.50333 2.08098ZM6.50384 1L3 3.29166L6.50384 6.5L9.99998 3.29166L6.50384 1Z" fill="black"/>
<path d="M3 3.29166L6.50001 5.125L9.99998 3.29166L10 20.7083L6.50001 23L3.00002 20.7083L3 3.29166Z" fill="#783B0F"/>
<path fill-rule="evenodd" clip-rule="evenodd" d="M6.50001 5.125L3 3.29166L3.00002 20.7083L6.50001 23L10 20.7083L9.99998 3.29166L6.50001 5.125ZM9.125 4.77486L6.50001 6.14986L3.87502 4.77486V20.2003L6.50001 21.919L9.125 20.2003V4.77486Z" fill="black"/>
<path d="M17.5038 1L21 3.29166L17.5038 6.5L14 3.29166L17.5038 1Z" fill="#D9D9D9"/>
<path fill-rule="evenodd" clip-rule="evenodd" d="M17.5033 2.08098L15.464 3.41476L17.5032 5.28196L19.538 3.41467L17.5033 2.08098ZM17.5038 1L14 3.29166L17.5038 6.5L21 3.29166L17.5038 1Z" fill="black"/>
<path d="M14 3.29166L17.5 5.125L21 3.29166L21 20.7083L17.5 23L14 20.7083L14 3.29166Z" fill="#783B0F"/>
<path fill-rule="evenodd" clip-rule="evenodd" d="M17.5 5.125L14 3.29166L14 20.7083L17.5 23L21 20.7083L21 3.29166L17.5 5.125ZM20.125 4.77486L17.5 6.14986L14.875 4.77486V20.2003L17.5 21.919L20.125 20.2003V4.77486Z" fill="black"/>
</svg>
