<svg width="24" height="24" viewBox="0 0 24 24" fill="none" xmlns="http://www.w3.org/2000/svg">
<path d="M15.08 3.73913C15.08 2.77863 15.868 2 16.84 2H18.6C19.572 2 20.36 2.77864 20.36 3.73913V20.2609C20.36 21.2214 19.572 22 18.6 22H16.84C15.868 22 15.08 21.2214 15.08 20.2609V3.73913Z" fill="#F8F8F8"/>
<path fill-rule="evenodd" clip-rule="evenodd" d="M18.6 2.86957H16.84C16.354 2.86957 15.96 3.25888 15.96 3.73913V20.2609C15.96 20.7411 16.354 21.1304 16.84 21.1304H18.6C19.086 21.1304 19.48 20.7411 19.48 20.2609V3.73913C19.48 3.25888 19.086 2.86957 18.6 2.86957ZM16.84 2C15.868 2 15.08 2.77863 15.08 3.73913V20.2609C15.08 21.2214 15.868 22 16.84 22H18.6C19.572 22 20.36 21.2214 20.36 20.2609V3.73913C20.36 2.77864 19.572 2 18.6 2H16.84Z" fill="black"/>
<path d="M3.64 3.73913C3.64 2.77863 4.42798 2 5.4 2H7.16C8.13202 2 8.92 2.77864 8.92 3.73913V20.2609C8.92 21.2214 8.13202 22 7.16 22H5.4C4.42798 22 3.64 21.2214 3.64 20.2609V3.73913Z" fill="#F8F8F8"/>
<path fill-rule="evenodd" clip-rule="evenodd" d="M7.16 2.86957H5.4C4.91399 2.86957 4.52 3.25888 4.52 3.73913V20.2609C4.52 20.7411 4.91399 21.1304 5.4 21.1304H7.16C7.64601 21.1304 8.04 20.7411 8.04 20.2609V3.73913C8.04 3.25888 7.64601 2.86957 7.16 2.86957ZM5.4 2C4.42798 2 3.64 2.77863 3.64 3.73913V20.2609C3.64 21.2214 4.42798 22 5.4 22H7.16C8.13202 22 8.92 21.2214 8.92 20.2609V3.73913C8.92 2.77864 8.13202 2 7.16 2H5.4Z" fill="black"/>
<path d="M1 4.6087C1 3.6482 1.78798 2.86957 2.76 2.86957H21.24C22.212 2.86957 23 3.6482 23 4.6087V15.913C23 16.8735 22.212 17.6522 21.24 17.6522H2.76C1.78798 17.6522 1 16.8735 1 15.913V4.6087Z" fill="#F8F8F8"/>
<path fill-rule="evenodd" clip-rule="evenodd" d="M21.24 3.73913H2.76C2.27399 3.73913 1.88 4.12845 1.88 4.6087V15.913C1.88 16.3933 2.27399 16.7826 2.76 16.7826H21.24C21.726 16.7826 22.12 16.3933 22.12 15.913V4.6087C22.12 4.12845 21.726 3.73913 21.24 3.73913ZM2.76 2.86957C1.78798 2.86957 1 3.6482 1 4.6087V15.913C1 16.8735 1.78798 17.6522 2.76 17.6522H21.24C22.212 17.6522 23 16.8735 23 15.913V4.6087C23 3.6482 22.212 2.86957 21.24 2.86957H2.76Z" fill="black"/>
<path d="M4.52 6.34783H5.4V7.21739H4.52V6.34783Z" fill="#CC8B40"/>
<path d="M4.52 7.21739H5.4V8.08696H4.52V7.21739Z" fill="#CC8B40"/>
<path d="M5.4 8.08696H6.28V8.95652H5.4V8.08696Z" fill="#CC8B40"/>
<path d="M6.28 8.08696H7.16V8.95652H6.28V8.08696Z" fill="#CC8B40"/>
<path d="M8.04 7.21739H8.92V8.08696H8.04V7.21739Z" fill="#CC8B40"/>
<path d="M8.92 6.34783H9.8V7.21739H8.92V6.34783Z" fill="#CC8B40"/>
<path d="M9.8 8.08696H10.68V8.95652H9.8V8.08696Z" fill="#CC8B40"/>
<path d="M10.68 8.08696H11.56V8.95652H10.68V8.08696Z" fill="#CC8B40"/>
<path d="M12.44 7.21739H13.32V8.08696H12.44V7.21739Z" fill="#CC8B40"/>
<path d="M13.32 8.08696H14.2V8.95652H13.32V8.08696Z" fill="#CC8B40"/>
<path d="M15.96 7.21739H16.84V8.08696H15.96V7.21739Z" fill="#CC8B40"/>
<path d="M16.84 6.34783H17.72V7.21739H16.84V6.34783Z" fill="#CC8B40"/>
<path d="M16.84 7.21739H17.72V8.08696H16.84V7.21739Z" fill="#CC8B40"/>
<path d="M18.6 7.21739H19.48V8.08696H18.6V7.21739Z" fill="#CC8B40"/>
<path d="M18.6 8.08696H19.48V8.95652H18.6V8.08696Z" fill="#CC8B40"/>
<path d="M17.72 8.08696H18.6V8.95652H17.72V8.08696Z" fill="#CC8B40"/>
<path d="M4.52 14.1739H5.4V13.3043H4.52V14.1739Z" fill="#CC8B40"/>
<path d="M5.4 12.4348H6.28V11.5652H5.4V12.4348Z" fill="#CC8B40"/>
<path d="M6.28 12.4348H7.16V11.5652H6.28V12.4348Z" fill="#CC8B40"/>
<path d="M8.04 13.3043H8.92V12.4348H8.04V13.3043Z" fill="#CC8B40"/>
<path d="M8.92 14.1739H9.8V13.3043H8.92V14.1739Z" fill="#CC8B40"/>
<path d="M10.68 12.4348H11.56V11.5652H10.68V12.4348Z" fill="#CC8B40"/>
<path d="M12.44 13.3043H13.32V12.4348H12.44V13.3043Z" fill="#CC8B40"/>
<path d="M13.32 12.4348H14.2V11.5652H13.32V12.4348Z" fill="#CC8B40"/>
<path d="M15.96 13.3043H16.84V12.4348H15.96V13.3043Z" fill="#CC8B40"/>
<path d="M16.84 14.1739H17.72V13.3043H16.84V14.1739Z" fill="#CC8B40"/>
<path d="M18.6 12.4348H19.48V11.5652H18.6V12.4348Z" fill="#CC8B40"/>
<path d="M17.72 12.4348H18.6V11.5652H17.72V12.4348Z" fill="#CC8B40"/>
</svg>
